<svg width="22" height="22" viewBox="0 0 22 22" fill="none" xmlns="http://www.w3.org/2000/svg">
  <mask id="path-1-inside-1_207_15" fill="white">
    <path d="M2.55 18.09L3.96 19.5L5.76 17.71L4.34 16.29M11 5C7.69 5 5 7.69 5 11C5 14.31 7.69 17 11 17C14.31 17 17 14.31 17 11C17 7.68 14.31 5 11 5ZM19 12H22V10H19M16.24 17.71L18.04 19.5L19.45 18.09L17.66 16.29M19.45 4L18.04 2.6L16.24 4.39L17.66 5.81M12 0H10V3H12M5.76 4.39L3.96 2.6L2.55 4L4.34 5.81L5.76 4.39ZM0 12H3V10H0M12 19H10V22H12" />
  </mask>
  <path d="M3.96 19.5L2.54579 20.9142L3.95607 22.3245L5.37027 20.9181L3.96 19.5ZM5.76 17.71L7.17027 19.1281L8.59237 17.7139L7.17421 16.2958L5.76 17.71ZM22 12V14H24V12H22ZM22 10H24V8H22V10ZM18.04 19.5L16.6297 20.9181L18.0439 22.3245L19.4542 20.9142L18.04 19.5ZM19.45 18.09L20.8642 19.5042L22.2745 18.0939L20.8681 16.6797L19.45 18.09ZM18.04 2.6L19.4492 1.18076L18.0389 -0.219497L16.6297 1.18185L18.04 2.6ZM16.24 4.39L14.8297 2.97185L13.4076 4.38605L14.8258 5.80421L16.24 4.39ZM10 0V-2H8V0H10ZM10 3H8V5H10V3ZM5.76 4.39L7.17421 5.80421L8.59237 4.38605L7.17027 2.97185L5.76 4.39ZM3.96 2.6L5.37027 1.18185L3.96109 -0.219497L2.55083 1.18076L3.96 2.6ZM2.55 4L1.14083 2.58076L-0.275578 3.98712L1.12795 5.40634L2.55 4ZM4.34 5.81L2.91795 7.21634L4.33212 8.64631L5.75421 7.22421L4.34 5.81ZM3 12V14H5V12H3ZM3 10H5V8H3V10ZM10 19V17H8V19H10ZM10 22H8V24H10V22ZM1.13579 19.5042L2.54579 20.9142L5.37421 18.0858L3.96421 16.6758L1.13579 19.5042ZM5.37027 20.9181L7.17027 19.1281L4.34973 16.2919L2.54973 18.0819L5.37027 20.9181ZM7.17421 16.2958L5.75421 14.8758L2.92579 17.7042L4.34579 19.1242L7.17421 16.2958ZM11 3C6.58543 3 3 6.58543 3 11H7C7 8.79457 8.79457 7 11 7V3ZM3 11C3 15.4146 6.58543 19 11 19V15C8.79457 15 7 13.2054 7 11H3ZM11 19C15.4146 19 19 15.4146 19 11H15C15 13.2054 13.2054 15 11 15V19ZM19 11C19 6.57326 15.4124 3 11 3V7C13.2076 7 15 8.78674 15 11H19ZM19 14H22V10H19V14ZM24 12V10H20V12H24ZM22 8H19V12H22V8ZM14.8297 19.1281L16.6297 20.9181L19.4503 18.0819L17.6503 16.2919L14.8297 19.1281ZM19.4542 20.9142L20.8642 19.5042L18.0358 16.6758L16.6258 18.0858L19.4542 20.9142ZM20.8681 16.6797L19.0781 14.8797L16.2419 17.7003L18.0319 19.5003L20.8681 16.6797ZM20.8592 2.58076L19.4492 1.18076L16.6308 4.01924L18.0408 5.41924L20.8592 2.58076ZM16.6297 1.18185L14.8297 2.97185L17.6503 5.80815L19.4503 4.01815L16.6297 1.18185ZM14.8258 5.80421L16.2458 7.22421L19.0742 4.39579L17.6542 2.97579L14.8258 5.80421ZM12 -2H10V2H12V-2ZM8 0V3H12V0H8ZM10 5H12V1H10V5ZM7.17027 2.97185L5.37027 1.18185L2.54973 4.01815L4.34973 5.80815L7.17027 2.97185ZM2.55083 1.18076L1.14083 2.58076L3.95917 5.41924L5.36917 4.01924L2.55083 1.18076ZM1.12795 5.40634L2.91795 7.21634L5.76205 4.40366L3.97205 2.59366L1.12795 5.40634ZM5.75421 7.22421L7.17421 5.80421L4.34579 2.97579L2.92579 4.39579L5.75421 7.22421ZM0 14H3V10H0V14ZM5 12V10H1V12H5ZM3 8H0V12H3V8ZM12 17H10V21H12V17ZM8 19V22H12V19H8ZM10 24H12V20H10V24Z" fill="black" mask="url(#path-1-inside-1_207_15)" />
</svg>