<svg width="79" height="121" viewBox="0 0 79 121" fill="none" xmlns="http://www.w3.org/2000/svg">
<path d="M75.7151 104.384C64.2059 93.3908 57.0187 77.8672 57.0187 60.6434C57.0187 60.5946 57.0187 60.5487 57.0187 60.5C57.0187 60.4513 57.0187 60.4054 57.0187 60.3566C57.0187 43.1328 64.2059 27.6092 75.7151 16.616C75.7122 16.616 75.7094 16.616 75.7094 16.616C76.7215 15.4605 80.3621 10.933 78.4548 5.98405C78.4463 5.96398 78.4406 5.94104 78.432 5.92097C78.1469 5.19841 77.7221 4.57908 77.2204 4.04863C75.3616 2.07879 72.4622 1.32756 71.7779 1.17273C67.9748 0.407156 64.0405 0 60.0121 0C26.8672 0 0 27.0214 0 60.3566C0 60.4054 0.00285093 60.4513 0.00285093 60.5C0.00285093 60.5487 0 60.5946 0 60.6434C0 93.9786 26.8672 121 60.0121 121C64.0405 121 67.9748 120.593 71.7779 119.83C72.4593 119.675 75.3616 118.924 77.2204 116.954C77.7221 116.424 78.1469 115.802 78.432 115.082C78.4406 115.062 78.4463 115.039 78.4548 115.019C80.365 110.067 76.7215 105.542 75.7094 104.387C75.7094 104.384 75.7151 104.384 75.7151 104.384ZM62.9458 109.442C61.9707 109.502 60.9929 109.531 60.0121 109.531C33.2333 109.531 11.4408 87.639 11.4037 60.715C11.4037 60.652 11.4066 60.5946 11.4066 60.5344V60.5V60.4656C11.4066 60.4054 11.4066 60.3452 11.4037 60.285C11.4408 33.361 33.2333 11.4692 60.0121 11.4692C60.9929 11.4692 61.9707 11.4979 62.9458 11.5581C63.285 11.5782 63.6243 11.6011 63.9635 11.6298L63.2622 12.6161L57.3237 20.9485C55.2169 24.1742 53.3666 27.5748 51.7843 31.136C47.6904 40.3572 45.6149 50.1892 45.6149 60.3566V60.4971V60.5V60.5029V60.6434C45.6149 70.8108 47.6904 80.6428 51.7843 89.864C53.3666 93.4281 55.2169 96.8287 57.3237 100.052L63.2622 108.384L63.9635 109.367C63.6243 109.399 63.285 109.422 62.9458 109.442Z" fill="#EEEEF0"/>
</svg>
