<svg width="24" height="24" viewBox="0 0 24 24" fill="none" xmlns="http://www.w3.org/2000/svg">
  <g clip-path="url(#clip0_207_10)">
    <path d="M16.3254 19.6632C16.9688 20.1936 16.7638 21.6573 15.8587 21.8128C15.3142 21.9048 14.7768 21.9613 14.197 21.9472C8.65324 21.9613 4.17726 17.4854 4.19847 11.9487C4.1914 6.42621 8.67446 1.94315 14.197 1.95022C14.7626 1.95022 15.3142 1.99265 15.8587 2.08457C16.7638 2.24013 16.9688 3.70384 16.3254 4.23418C14.1121 6.06558 12.6908 8.84451 12.6979 11.9487C12.6908 15.0529 14.105 17.8248 16.3254 19.6632ZM13.7373 19.9319C11.8494 17.8177 10.6968 15.0105 10.6756 11.9629C10.6897 8.87987 11.8564 6.07265 13.7373 3.96547C9.53006 4.19882 6.19958 7.68486 6.19251 11.9487C6.19958 16.2126 9.53006 19.6986 13.7373 19.9319Z" fill="white" />
  </g>
  <defs>
    <clipPath id="clip0_207_10">
      <rect width="24" height="24" fill="white" />
    </clipPath>
  </defs>
</svg>
  