<svg width="94" height="75" viewBox="0 0 94 75" fill="none" xmlns="http://www.w3.org/2000/svg">
<path d="M56.4 46.875H37.6C35.0047 46.875 32.9 48.9741 32.9 51.5625V70.3125C32.9 72.9009 35.0047 75 37.6 75H56.4C58.9953 75 61.1 72.9009 61.1 70.3125V51.5625C61.1 48.9741 58.9953 46.875 56.4 46.875ZM28.2 4.6875C28.2 2.09912 26.0953 0 23.5 0H4.7C2.10472 0 0 2.09912 0 4.6875V23.4375C0 26.0259 2.10472 28.125 4.7 28.125H18.7589L29.5042 46.8809C31.1346 44.0889 34.1337 42.1875 37.6 42.1875H37.6411L28.2 25.7095V18.75H61.1V9.375H28.2V4.6875ZM89.3 0H70.5C67.9047 0 65.8 2.09912 65.8 4.6875V23.4375C65.8 26.0259 67.9047 28.125 70.5 28.125H89.3C91.8953 28.125 94 26.0259 94 23.4375V4.6875C94 2.09912 91.8953 0 89.3 0Z" fill="black"/>
</svg>
