<svg width="80" height="23" viewBox="0 0 80 23" fill="none" xmlns="http://www.w3.org/2000/svg">
<path d="M31.7893 17.4397C31.7893 21.3688 30.2427 22.5596 25.1693 22.5596C19.0073 22.5596 17.6227 21.1073 17.6227 14.5634C17.6227 11.1926 17.975 9.54246 18.9755 8.41884C20.0607 7.22808 21.7765 6.7334 24.8698 6.7334C28.8898 6.7334 30.602 7.62735 31.3947 10.0689C31.7224 11.1608 31.7893 11.9205 31.7893 15.3231H21.3784V15.9203C21.3784 19.058 22.0372 19.7858 24.8698 19.7858C27.5721 19.7858 28.0653 19.4325 28.1006 17.4397H31.7893ZM28.1323 12.4151C28.0653 9.97001 27.5721 9.51773 24.8064 9.51773C22.7947 9.51773 22.0724 9.78274 21.6778 10.7403C21.477 11.2385 21.4453 11.666 21.4136 13.0229H28.1323V12.4151Z" fill="#F9F9F9"/>
<path d="M47.2096 16.4826V17.0091C47.2096 18.7263 46.977 19.8358 46.4521 20.6449C45.529 22.0972 44.081 22.5601 40.586 22.5601C37.5878 22.5601 36.0411 22.2067 34.9207 21.2386C33.6348 20.1149 33.1591 18.4118 33.1591 14.6311C33.1591 11.4263 33.4586 9.87156 34.3465 8.68433C35.3365 7.3275 37.1474 6.73389 40.1456 6.73389C45.4832 6.73389 46.9629 7.95645 46.9629 12.3874H43.3693C43.3693 10.1719 42.8091 9.67722 40.3711 9.67722C37.3729 9.67722 36.9783 10.239 36.9783 14.7335C36.9783 17.2458 37.2073 18.5002 37.8027 19.0938C38.1973 19.4895 39.0182 19.6556 40.4697 19.6556C43.1368 19.6556 43.5349 19.228 43.5349 16.4755L47.2096 16.4826Z" fill="#F9F9F9"/>
<path d="M12.3183 7.57262V7.18536C12.3183 4.92376 11.6702 4.47454 8.49156 4.47454C4.75743 4.47454 4.01677 4.93925 4.01677 7.29379C4.01677 8.78087 4.40253 9.46245 5.37464 9.77226C5.89927 9.92716 6.08443 9.92716 9.29394 10.113C12.7658 10.3299 13.923 10.5468 14.9106 11.2748C16.1759 12.1268 16.5925 13.335 16.5925 15.9684C16.5925 18.5398 16.2067 19.934 15.3272 20.8324C14.0928 22.0406 12.4941 22.8111 8.20442 22.8111C4.47029 22.8111 3.2144 22.1646 1.87196 21.3591C1.44857 21.0636 1.08749 20.687 0.809455 20.2511C0.531418 19.8151 0.341898 19.3283 0.251776 18.8186C0.0609184 17.7767 -0.0218189 16.7177 0.00489129 15.6586H3.80075C3.80075 17.2076 3.89333 17.7343 4.2328 18.261C4.72657 19.0975 5.22034 19.1904 8.42984 19.1904C10.7444 19.1904 11.3925 19.0975 11.9788 18.6328C12.5034 18.2455 12.7195 17.471 12.7195 16.0304C12.7195 14.6672 12.4109 14.0166 11.5622 13.7378C11.0684 13.5519 11.0684 13.5519 7.64289 13.3505C4.12478 13.1337 3.39956 13.0097 2.33487 12.5141C0.714686 11.6931 0.0666125 10.206 0.0666125 7.35575C0.0666125 4.90827 0.591243 3.39022 1.70223 2.58471C2.96751 1.62431 4.56003 0.911133 8.38675 0.911133C12.2135 0.911133 13.923 1.73274 14.9569 2.89452C15.7592 3.79297 16.1141 5.0322 16.1141 6.82908V7.57262H12.3183Z" fill="#F9F9F9"/>
<path fill-rule="evenodd" clip-rule="evenodd" d="M5.37464 9.77226C4.40253 9.46245 4.01677 8.78087 4.01677 7.29379C4.01677 4.93925 4.75743 4.47454 8.49156 4.47454C11.6702 4.47454 12.3183 4.92376 12.3183 7.18536V7.57262H16.1141V6.82908C16.1141 5.0322 15.7592 3.79297 14.9569 2.89452C13.923 1.73274 12.2135 0.911133 8.38675 0.911133C4.56003 0.911133 2.96751 1.62431 1.70223 2.58471C0.591243 3.39022 0.0666125 4.90827 0.0666125 7.35575C0.0666125 10.206 0.714686 11.6931 2.33487 12.5141C3.39956 13.0097 4.12478 13.1337 7.64289 13.3505C11.0684 13.5519 11.0684 13.5519 11.5622 13.7378C12.4109 14.0166 12.7195 14.6672 12.7195 16.0304C12.7195 17.471 12.5034 18.2455 11.9788 18.6328C11.3925 19.0975 10.7444 19.1904 8.42984 19.1904C5.22034 19.1904 4.72657 19.0975 4.2328 18.261C3.89333 17.7343 3.80075 17.2076 3.80075 15.6586H0.00489129C-0.0218189 16.7177 0.0609184 17.7767 0.251776 18.8186C0.341898 19.3283 0.531418 19.8151 0.809455 20.2511C1.08749 20.687 1.44857 21.0636 1.87196 21.3591C3.2144 22.1646 4.47029 22.8111 8.20442 22.8111C12.4941 22.8111 14.0928 22.0406 15.3272 20.8324C16.2067 19.934 16.5925 18.5398 16.5925 15.9684C16.5925 13.335 16.1759 12.1268 14.9106 11.2748C13.923 10.5468 12.7658 10.3299 9.29394 10.113C9.04087 10.0984 8.80661 10.0849 8.5895 10.0724C6.05312 9.9262 5.8579 9.91495 5.37464 9.77226ZM9.28668 10.2317C9.02252 10.2164 8.77878 10.2024 8.55358 10.1894C6.05202 10.0454 5.83792 10.033 5.34096 9.8863L5.33974 9.88594L5.33853 9.88556C4.83036 9.7236 4.46284 9.45928 4.22705 9.03195C3.99464 8.61076 3.89786 8.04455 3.89786 7.29379C3.89786 6.11238 4.08148 5.34703 4.7905 4.90059C5.13726 4.68225 5.59926 4.54744 6.20111 4.4661C6.80377 4.38465 7.55664 4.35563 8.49156 4.35563C9.28784 4.35563 9.93156 4.38368 10.4484 4.46252C10.9648 4.54129 11.3644 4.67211 11.6655 4.88472C12.278 5.31726 12.4372 6.05358 12.4372 7.18536V7.45371H15.9952V6.82908C15.9952 5.04641 15.643 3.84131 14.8682 2.97373L14.868 2.97357C13.8666 1.84818 12.1978 1.03005 8.38675 1.03005C4.57818 1.03005 3.01326 1.73888 1.77412 2.67943L1.77308 2.68022L1.77203 2.68099C0.70933 3.45148 0.185528 4.91793 0.185528 7.35575C0.185528 8.77396 0.347115 9.83927 0.702063 10.6481C1.05464 11.4515 1.60087 12.0084 2.38687 12.4071C3.42697 12.8911 4.13084 13.0149 7.64987 13.2318M7.65021 13.2318L7.65706 13.2322C9.36338 13.3326 10.2214 13.383 10.7136 13.4316C10.9608 13.4561 11.1202 13.4804 11.2508 13.5115C11.381 13.5425 11.4797 13.5797 11.6015 13.6255L11.6017 13.6256C12.0505 13.7736 12.3665 14.0249 12.5655 14.4244C12.7612 14.8173 12.8384 15.3431 12.8384 16.0304C12.8384 17.4672 12.6269 18.3009 12.0511 18.7272C11.4266 19.2214 10.7311 19.3093 8.42984 19.3093C6.82986 19.3093 5.88928 19.2867 5.28759 19.1556C4.98302 19.0892 4.7571 18.9935 4.5735 18.8537C4.39086 18.7146 4.25837 18.5379 4.13157 18.3234C3.78161 17.7795 3.68673 17.234 3.68202 15.7775H0.121285C0.103447 16.7897 0.186326 17.8013 0.368745 18.7972L0.368877 18.7979C0.45628 19.2923 0.640084 19.7644 0.909716 20.1871C1.17862 20.6088 1.5276 20.9731 1.93669 21.2592C2.60363 21.6593 3.24168 22.015 4.173 22.2725C5.10771 22.5311 6.34369 22.6922 8.20442 22.6922C10.3434 22.6922 11.8019 22.4999 12.8758 22.1614C13.9453 21.8243 14.6377 21.3407 15.2431 20.7483C16.0873 19.8853 16.4736 18.5334 16.4736 15.9684C16.4736 14.6555 16.3693 13.7116 16.114 12.9934C15.8607 12.2812 15.457 11.7861 14.8442 11.3735L14.842 11.372L14.84 11.3705C13.8856 10.6669 12.766 10.4491 9.28668 10.2317" fill="#292929"/>
<path d="M62.2663 7.26563H59.1941H58.5713H58.5537V14.2805V16.2847C58.5537 18.9759 57.8886 19.67 55.0346 19.67C52.6452 19.67 52.2194 18.8095 52.2194 16.5928V7.25146H48.4751V16.1891C48.4751 21.0439 50.1748 22.5878 55.3725 22.5878C56.0861 22.6143 56.8006 22.5681 57.505 22.4497C58.7683 22.131 59.1378 21.6388 59.1378 21.6388L62.2698 17.2975V13.1225C62.2663 13.0269 62.2663 7.26563 62.2663 7.26563Z" fill="#F9F9F9"/>
<path d="M66.7907 10.7092L68.6572 8.26431L66.9606 5.73694L66.637 5.29262L64.3027 1.74561H60.1874L66.7907 10.7092Z" fill="#F9F9F9"/>
<path fill-rule="evenodd" clip-rule="evenodd" d="M66.7866 11.1507L59.6627 1.48047H64.4451L66.8546 5.14156L67.1774 5.5849L68.9827 8.27408L66.7866 11.1507ZM66.6367 5.29248L64.3023 1.74546H60.187L66.7903 10.7091L68.6569 8.26416L66.9602 5.7368L66.6367 5.29248Z" fill="#F9F9F9"/>
<path d="M75.2082 6.98746L75.5771 6.46602C76.6225 5.13166 77.3682 4.89523 79.6985 4.88552V1.60791H78.5676C76.493 1.60791 75.0075 2.1002 73.5705 3.93009L60.1544 22.2301H64.1092L67.6607 17.3126L69.6382 14.5953L73.3375 19.6801C74.8198 21.7399 76.3927 22.3359 78.5676 22.3359H79.6985V19.0744C77.8731 19.0744 76.9979 18.9546 76.2891 18.0769L71.6966 11.7711L75.2082 6.98746Z" fill="#F9F9F9"/>
<path fill-rule="evenodd" clip-rule="evenodd" d="M75.4237 7.14276L72.0255 11.7721L76.5 17.9158C76.8168 18.3063 77.1626 18.5236 77.6426 18.6487C78.1412 18.7788 78.7845 18.8098 79.6991 18.8098H79.9641V22.6012H78.5682C77.457 22.6012 76.4772 22.4491 75.5791 22.0199C74.6798 21.59 73.8838 20.8924 73.1232 19.8356C73.1231 19.8355 73.1231 19.8353 73.123 19.8352L69.6388 15.046L67.8762 17.4681L67.8756 17.4688L64.2453 22.4954H59.6321L73.36 3.77022L73.3627 3.76677C74.1025 2.82464 74.8665 2.21279 75.725 1.84006C76.581 1.46844 77.511 1.34326 78.5682 1.34326H79.9641V5.14976L79.7002 5.15086C78.5343 5.15572 77.8087 5.21881 77.2492 5.42764C76.7065 5.63025 76.2961 5.97992 75.7903 6.62473L75.4237 7.14276ZM75.5777 6.46637C76.6231 5.13201 77.3688 4.89558 79.6991 4.88587V1.60826H78.5682C76.4936 1.60826 75.0081 2.10055 73.5711 3.93044L60.1549 22.2305H64.1098L67.6613 17.3129L69.6388 14.5956L73.3381 19.6804C74.8204 21.7403 76.3933 22.3362 78.5682 22.3362H79.6991V19.0748C77.8737 19.0748 76.9985 18.955 76.2897 18.0773L71.6972 11.7714L75.2087 6.98781L75.5777 6.46637Z" fill="#F9F9F9"/>
</svg>
