<svg width="90" height="90" viewBox="0 0 90 90" fill="none" xmlns="http://www.w3.org/2000/svg">
<path d="M89.125 44.4782C89.1705 69.0307 69.1473 89.1076 44.5948 89.1248C33.9906 89.1324 24.2501 85.4358 16.5956 79.258C14.6052 77.6516 14.4564 74.6686 16.2651 72.8599L18.2897 70.8353C19.8366 69.2884 22.3062 69.1191 24.0201 70.4788C29.6596 74.9539 36.7966 77.625 44.5625 77.625C62.8376 77.625 77.625 62.8347 77.625 44.5625C77.625 26.2874 62.8347 11.5 44.5625 11.5C35.7912 11.5 27.8248 14.9085 21.9097 20.4722L31.0295 29.592C32.8408 31.4033 31.558 34.5 28.9967 34.5H2.875C1.2871 34.5 0 33.2129 0 31.625V5.50329C0 2.94202 3.09673 1.65923 4.90798 3.4703L13.7795 12.3418C21.7797 4.69631 32.6226 0 44.5625 0C69.1455 0 89.0795 19.9058 89.125 44.4782ZM56.6174 58.6347L58.3824 56.3653C59.8447 54.4852 59.506 51.7757 57.626 50.3136L50.3125 44.6252V25.875C50.3125 23.4932 48.3818 21.5625 46 21.5625H43.125C40.7432 21.5625 38.8125 23.4932 38.8125 25.875V50.2498L50.5657 59.3912C52.4457 60.8533 55.1551 60.5148 56.6174 58.6347V58.6347Z" fill="#27043C"/>
</svg>
