<svg width="109" height="110" viewBox="0 0 109 110" fill="none" xmlns="http://www.w3.org/2000/svg">
<path d="M28.0166 72.5879H7.64123C3.42327 72.5879 0 76.0112 0 80.2291V100.604C0 104.822 3.42327 108.246 7.64123 108.246H28.0166C32.2384 108.246 35.6578 104.822 35.6578 100.604V80.2291C35.6578 76.0073 32.2384 72.5879 28.0166 72.5879ZM22.2895 94.8736H13.3722V85.9562H22.2895V94.8736Z" fill="white"/>
<path d="M100.612 108.246C104.834 108.246 108.254 104.822 108.254 100.604V80.2291C108.254 76.0112 104.834 72.5879 100.612 72.5879H80.2369C76.019 72.5879 72.5957 76.0112 72.5957 80.2291V100.604C72.5957 104.822 76.019 108.246 80.2369 108.246H100.612ZM85.9679 85.9562H94.8852V94.8736H85.9679V85.9562Z" fill="white"/>
<path d="M35.6578 28.0166V7.64123C35.6578 3.42327 32.2384 0 28.0166 0H7.64123C3.42327 0 0 3.42327 0 7.64123V28.0166C0 32.2345 3.42327 35.6578 7.64123 35.6578H28.0166C32.2384 35.6578 35.6578 32.2345 35.6578 28.0166ZM22.2895 22.2857H13.3722V13.3683H22.2895V22.2857Z" fill="white"/>
<path d="M57.4742 82.3008H48.5607C47.5062 82.3008 46.6504 83.1566 46.6504 84.2111V108.09C46.6504 109.144 47.5062 110 48.5607 110H57.4742C58.5287 110 59.3845 109.144 59.3845 108.09V84.2111C59.3845 83.1566 58.5287 82.3008 57.4742 82.3008Z" fill="white"/>
<path d="M2.70328 49.3467C1.64879 49.3467 0.792969 50.2025 0.792969 51.257V59.8534C0.792969 60.9079 1.64879 61.7637 2.70328 61.7637H11.6168C12.6713 61.7637 13.5271 60.9079 13.5271 59.8534V51.257C13.5271 50.2025 12.6713 49.3467 11.6168 49.3467H2.70328Z" fill="white"/>
<path d="M107.935 4.61246C107.935 3.55797 107.079 2.70215 106.025 2.70215H98.0663H97.1111H85.3322C84.2777 2.70215 83.4219 3.55797 83.4219 4.61246V13.2088C83.4219 14.2633 84.2777 15.1192 85.3322 15.1192H95.2008V24.6707C95.2008 25.7252 96.0567 26.581 97.1111 26.581H106.025C107.079 26.581 107.935 25.7252 107.935 24.6707V4.61246Z" fill="white"/>
<path d="M89.2741 50.1427C90.3286 50.1427 91.1844 49.2869 91.1844 48.2324V35.8154C91.1844 34.7609 90.3286 33.9051 89.2741 33.9051H68.937H68.8987H60.9786V25.7863H68.1423C69.1968 25.7863 70.0526 24.9305 70.0526 23.876V15.2796C70.0526 14.2251 69.1968 13.3693 68.1423 13.3693H60.9786V4.61246C60.9786 3.55797 60.1228 2.70215 59.0683 2.70215H50.1548C49.1003 2.70215 48.2445 3.55797 48.2445 4.61246V36.1325C48.2445 37.187 49.1003 38.0428 50.1548 38.0428H58.1131V59.5032C57.9107 59.4306 57.7005 59.3733 57.4751 59.3733H48.5616C48.3362 59.3733 48.1261 59.4306 47.9236 59.5032V51.2545C47.9236 50.2 47.0677 49.3442 46.0133 49.3442H37.0998C36.0453 49.3442 35.1895 50.2 35.1895 51.2545V59.8509C35.1895 60.9054 36.0453 61.7612 37.0998 61.7612H46.0133C46.2387 61.7612 46.4488 61.7039 46.6513 61.6313V69.88C46.6513 70.9345 47.5071 71.7903 48.5616 71.7903H57.4751C58.5296 71.7903 59.3854 70.9345 59.3854 69.88V61.4747C59.5879 61.5473 59.798 61.6046 60.0235 61.6046H68.937C69.9914 61.6046 70.8473 60.7487 70.8473 59.6943V50.1427H89.2741Z" fill="white"/>
<path d="M106.023 37.252H97.1095C96.055 37.252 95.1992 38.1078 95.1992 39.1623V47.7586C95.1992 48.8131 96.055 49.669 97.1095 49.669H106.023C107.078 49.669 107.933 48.8131 107.933 47.7586V39.1623C107.933 38.104 107.078 37.252 106.023 37.252Z" fill="white"/>
</svg>
