<svg width="109" height="108" viewBox="0 0 109 108" fill="none" xmlns="http://www.w3.org/2000/svg">
<mask id="path-1-inside-1" fill="white">
<rect x="48.4171" y="0.000152588" width="60.5014" height="80.0179" rx="5.96374"/>
</mask>
<rect x="48.4171" y="0.000152588" width="60.5014" height="80.0179" rx="5.96374" fill="white" stroke="#27043C" stroke-width="14" mask="url(#path-1-inside-1)"/>
<mask id="path-2-inside-2" fill="white">
<rect x="33.3702" y="15.0471" width="60.5014" height="80.0179" rx="5.96374"/>
</mask>
<rect x="33.3702" y="15.0471" width="60.5014" height="80.0179" rx="5.96374" fill="white" stroke="#27043C" stroke-width="14" mask="url(#path-2-inside-2)"/>
<circle cx="31.1455" cy="76.7515" r="27.6278" fill="white" stroke="#27043C" stroke-width="7.03529"/>
<path d="M24.0719 88.7472H20.3512C19.2645 88.7472 18.7211 88.7472 18.3957 88.5365C18.044 88.3089 17.8222 87.927 17.7986 87.5087C17.7769 87.1216 18.0461 86.6496 18.5844 85.7056L29.0315 67.3877C29.5777 66.43 29.8508 65.9511 30.1982 65.7729C30.5736 65.5803 31.0188 65.5799 31.3945 65.772C31.7421 65.9497 32.016 66.4282 32.5636 67.3851L34.46 70.699C35.0573 71.7428 35.3559 72.2646 35.4872 72.8152C35.6302 73.4146 35.6304 74.0391 35.488 74.6386C35.3571 75.1893 35.0589 75.7114 34.4625 76.7557L29.3704 85.6716C28.7653 86.731 28.4627 87.2608 28.0482 87.6569C27.597 88.088 27.0498 88.4056 26.4517 88.5836C25.9021 88.7472 25.2921 88.7472 24.0719 88.7472Z" fill="#27043C"/>
<path d="M42.1374 88.7472H36.4461C35.3495 88.7472 34.8012 88.7472 34.4748 88.5347C34.1221 88.3052 33.9009 87.9204 33.88 87.5001C33.8607 87.1111 34.1366 86.6373 34.6885 85.6897L37.5295 80.8115C38.0744 79.8758 38.3469 79.408 38.6919 79.2327C39.0647 79.0434 39.5055 79.0431 39.8786 79.2319C40.2239 79.4066 40.4969 79.8741 41.0432 80.809L43.8935 85.6872C44.4475 86.6354 44.7245 87.1094 44.7056 87.4987C44.6852 87.9193 44.4641 88.3046 44.1112 88.5345C43.7847 88.7472 43.2356 88.7472 42.1374 88.7472Z" fill="#27043C"/>
</svg>
