<svg width="110" height="109" viewBox="0 0 110 109" fill="none" xmlns="http://www.w3.org/2000/svg">
<mask id="path-1-inside-1" fill="white">
<rect x="51.0156" y="0.384766" width="58.8154" height="77.7881" rx="5.79755"/>
</mask>
<rect x="51.0156" y="0.384766" width="58.8154" height="77.7881" rx="5.79755" fill="white" stroke="#181B1D" stroke-width="14.0574" mask="url(#path-1-inside-1)"/>
<mask id="path-2-inside-2" fill="white">
<rect x="34" y="16" width="58.8154" height="77.7881" rx="5.79755"/>
</mask>
<rect x="34" y="16" width="58.8154" height="77.7881" rx="5.79755" fill="white" stroke="#181B1D" stroke-width="14.0574" mask="url(#path-2-inside-2)"/>
<circle cx="37" cy="72" r="33.756" fill="white" stroke="#181B1D" stroke-width="6.48805"/>
<path d="M29.81 80H26.0926C25.0069 80 24.464 80 24.1389 79.7895C23.7875 79.5621 23.5659 79.1805 23.5424 78.7626C23.5206 78.3759 23.7896 77.9043 24.3274 76.9612L34.7651 58.6597C35.3108 57.7028 35.5837 57.2244 35.9308 57.0463C36.3058 56.8539 36.7506 56.8536 37.126 57.0455C37.4733 57.223 37.7469 57.7011 38.294 58.6571L40.1887 61.968C40.7855 63.0108 41.0838 63.5322 41.215 64.0823C41.3579 64.6812 41.3581 65.3051 41.2158 65.9041C41.085 66.4543 40.7871 66.976 40.1913 68.0193L35.1037 76.9272C34.4992 77.9857 34.1969 78.5149 33.7827 78.9107C33.3319 79.3414 32.7852 79.6587 32.1876 79.8366C31.6385 80 31.029 80 29.81 80Z" fill="#181B1D"/>
<path d="M47.8576 79.9998H42.1714C41.0758 79.9998 40.528 79.9998 40.2019 79.7875C39.8495 79.5581 39.6285 79.1737 39.6076 78.7538C39.5884 78.3652 39.864 77.8918 40.4154 76.945L43.2538 72.0712C43.7983 71.1363 44.0705 70.6689 44.4152 70.4939C44.7877 70.3047 45.2281 70.3044 45.6008 70.493C45.9458 70.6676 46.2186 71.1346 46.7644 72.0687L49.6121 76.9425C50.1656 77.8899 50.4424 78.3635 50.4235 78.7524C50.4031 79.1726 50.1821 79.5575 49.8296 79.7872C49.5034 79.9998 48.9548 79.9998 47.8576 79.9998Z" fill="#181B1D"/>
</svg>
