<svg width="110" height="84" viewBox="0 0 110 84" fill="none" xmlns="http://www.w3.org/2000/svg">
<path d="M84.8573 20.499H5.28333C2.40376 20.499 0.0703125 22.5133 0.0703125 24.999C0.0703125 27.4847 2.40376 29.499 5.28333 29.499H84.8573C87.7369 29.499 90.0703 27.4847 90.0703 24.999C90.0703 22.5133 87.7369 20.499 84.8573 20.499Z" fill="white"/>
<path d="M107.169 22.5998L83.9527 6.6514C82.6257 5.73979 80.8203 6.6899 80.8203 8.29992L80.8203 40.1968C80.8203 41.8068 82.6257 42.7569 83.9527 41.8453L107.169 25.8968C108.326 25.1022 108.326 23.3944 107.169 22.5998Z" fill="white"/>
<path d="M103.57 54.499H19.5749C16.5353 54.499 14.0723 56.5133 14.0723 58.999C14.0723 61.4847 16.5353 63.499 19.5749 63.499H103.57C106.609 63.499 109.072 61.4847 109.072 58.999C109.072 56.5133 106.609 54.499 103.57 54.499Z" fill="white"/>
<path d="M2.47135 60.8963L25.6879 76.8447C27.0149 77.7563 28.8203 76.8062 28.8203 75.1962L28.8203 43.2993C28.8203 41.6893 27.0149 40.7392 25.6879 41.6508L2.47135 57.5992C1.3146 58.3939 1.3146 60.1016 2.47135 60.8963Z" fill="white"/>
</svg>
