<!-- Generated by IcoMoon.io -->
<svg version="1.1" xmlns="http://www.w3.org/2000/svg" width="29" height="32" viewBox="0 0 29 32">
<title>hardware</title>
<path fill="white" d="M2.562 1.653c0-0.511 0.414-0.926 0.926-0.926h9.256c0.511 0 0.926 0.414 0.926 0.926v6.479h-0.347c1.022 0 1.851 0.829 1.851 1.851v3.702h12.033c0.511 0 0.926 0.414 0.926 0.926v12.959c0 0.511-0.414 0.926-0.926 0.926h-12.033v0.926c0 1.022-0.829 1.851-1.851 1.851h-11.107c-1.022 0-1.851-0.829-1.851-1.851v-19.438c0-1.022 0.829-1.851 1.851-1.851h0.347v-6.479zM11.699 26.182h14.119v-10.182h-14.119c-2.755 0.053-4.972 2.313-4.972 5.091s2.217 5.038 4.972 5.091zM12.125 24.684c1.977 0 3.579-1.609 3.579-3.594s-1.603-3.594-3.579-3.594c-1.977 0-3.58 1.609-3.58 3.594s1.603 3.594 3.58 3.594zM4.413 2.578v5.554h7.405v-5.554h-7.405zM5.339 4.43c0-0.511 0.414-0.926 0.926-0.926s0.926 0.414 0.926 0.926v1.851c0 0.511-0.414 0.926-0.926 0.926s-0.926-0.414-0.926-0.926v-1.851zM9.041 4.43c0-0.511 0.414-0.926 0.926-0.926s0.926 0.414 0.926 0.926v1.851c0 0.511-0.414 0.926-0.926 0.926s-0.926-0.414-0.926-0.926v-1.851z"></path>
</svg>
