<svg width="812" height="302" viewBox="0 0 812 302" fill="none" xmlns="http://www.w3.org/2000/svg">
<path d="M274.541 189.292C266.539 175.346 253.737 175.346 245.735 189.292L195.211 276.852C187.209 290.569 193.839 302 209.614 302H309.748C325.751 302 332.381 290.569 324.38 276.852L274.541 189.292Z" fill="black"/>
<path d="M216.013 86.1851L189.721 39.7757L178.519 19.886C170.518 5.94034 157.715 5.94034 149.713 19.886L3.39822 276.624C-4.6034 290.569 2.02651 301.771 18.0297 301.771H58.7236H86.615H91.416C104.676 301.771 121.136 292.398 127.766 280.739L216.013 128.022C222.414 116.82 222.414 97.8446 216.013 86.1851Z" fill="black"/>
<path d="M758.742 189.292C750.74 175.346 737.937 175.346 729.936 189.292L679.411 276.852C671.41 290.569 678.04 302 693.814 302H793.949C809.952 302 816.582 290.569 808.58 276.852L758.742 189.292Z" fill="black"/>
<path d="M700.21 86.1851L673.919 39.7757L662.716 19.886C654.715 5.94034 641.912 5.94034 633.911 19.886L487.824 276.395C479.822 290.341 486.452 301.543 502.456 301.543H542.921H570.812H575.613C588.873 301.543 605.333 292.17 611.963 280.51L700.21 127.793C706.611 116.82 706.84 97.8446 700.21 86.1851Z" fill="black"/>
<path d="M566.478 25.1479C574.479 11.2023 567.849 0 551.846 0H451.712C435.708 0 429.307 11.2023 437.309 25.1479L487.833 112.708C495.835 126.426 508.866 126.426 516.639 112.708L566.478 25.1479Z" fill="black"/>
<path d="M458.119 215.587L431.828 261.996L420.626 281.886C412.624 295.831 399.822 295.831 391.82 281.886L245.505 25.1482C237.503 11.2025 244.133 0.000244141 260.136 0.000244141H300.83H328.722H333.523C346.782 0.000244141 363.243 9.37356 369.873 21.0331L458.119 173.75C464.521 185.18 464.749 203.927 458.119 215.587Z" fill="black"/>
</svg>
