<svg width="60" height="87" viewBox="0 0 60 87" fill="none" xmlns="http://www.w3.org/2000/svg">
<path d="M54.7636 56.6182C54.7636 70.36 43.6237 81.5 29.8818 81.5C16.14 81.5 5 70.36 5 56.6182C5 50.5987 7.44947 46.1847 12.4411 39.107C13.093 38.1826 13.7807 37.2224 14.4995 36.2186C18.8302 30.1715 24.2926 22.5443 29.8838 11.6587C35.2544 22.0609 40.6147 29.5763 44.923 35.6167C45.7075 36.7165 46.457 37.7674 47.1654 38.7779C52.2187 45.9864 54.7636 50.6169 54.7636 56.6182Z" stroke="white" stroke-width="10"/>
<path d="M7 53H50V67C50 72.5228 45.5228 77 40 77H17C11.4772 77 7 72.5228 7 67V53Z" fill="white"/>
</svg>
