<svg width="82" height="83" viewBox="0 0 82 83" fill="none" xmlns="http://www.w3.org/2000/svg">
<path d="M21.1398 54.7705H5.76566C2.58302 54.7705 0 57.3535 0 60.5362V75.9103C0 79.0929 2.58302 81.676 5.76566 81.676H21.1398C24.3253 81.676 26.9054 79.0929 26.9054 75.9103V60.5362C26.9054 57.3506 24.3253 54.7705 21.1398 54.7705ZM16.8184 71.5861H10.0899V64.8575H16.8184V71.5861Z" fill="white"/>
<path d="M75.9171 81.6769C79.1027 81.6769 81.6828 79.0939 81.6828 75.9113V60.5371C81.6828 57.3545 79.1027 54.7715 75.9171 54.7715H60.543C57.3604 54.7715 54.7773 57.3545 54.7773 60.5371V75.9113C54.7773 79.0939 57.3604 81.6769 60.543 81.6769H75.9171ZM64.8672 64.8585H71.5958V71.587H64.8672V64.8585Z" fill="white"/>
<path d="M26.9054 21.1398V5.76566C26.9054 2.58302 24.3253 0 21.1398 0H5.76566C2.58302 0 0 2.58302 0 5.76566V21.1398C0 24.3224 2.58302 26.9054 5.76566 26.9054H21.1398C24.3253 26.9054 26.9054 24.3224 26.9054 21.1398ZM16.8184 16.8155H10.0899V10.087H16.8184V16.8155Z" fill="white"/>
<path d="M43.3702 62.0996H36.6445C35.8489 62.0996 35.2031 62.7454 35.2031 63.541V81.5587C35.2031 82.3544 35.8489 83.0001 36.6445 83.0001H43.3702C44.1658 83.0001 44.8116 82.3544 44.8116 81.5587V63.541C44.8116 62.7454 44.1658 62.0996 43.3702 62.0996Z" fill="white"/>
<path d="M2.03907 37.2354C1.24341 37.2354 0.597656 37.8811 0.597656 38.6768V45.1631C0.597656 45.9588 1.24341 46.6045 2.03907 46.6045H8.76471C9.56037 46.6045 10.2061 45.9588 10.2061 45.1631V38.6768C10.2061 37.8811 9.56037 37.2354 8.76471 37.2354H2.03907Z" fill="white"/>
<path d="M81.4415 3.4795C81.4415 2.68384 80.7958 2.03809 80.0001 2.03809H73.9952H73.2745H64.3867C63.5911 2.03809 62.9453 2.68384 62.9453 3.4795V9.96587C62.9453 10.7615 63.5911 11.4073 64.3867 11.4073H71.8331V18.6144C71.8331 19.41 72.4788 20.0558 73.2745 20.0558H80.0001C80.7958 20.0558 81.4415 19.41 81.4415 18.6144V3.4795Z" fill="white"/>
<path d="M67.3601 37.8342C68.1558 37.8342 68.8015 37.1884 68.8015 36.3928V27.0236C68.8015 26.2279 68.1558 25.5821 67.3601 25.5821H52.0148H51.986H46.0099V19.4561H51.4152C52.2108 19.4561 52.8566 18.8104 52.8566 18.0147V11.5284C52.8566 10.7327 52.2108 10.0869 51.4152 10.0869H46.0099V3.4795C46.0099 2.68384 45.3641 2.03809 44.5685 2.03809H37.8428C37.0472 2.03809 36.4014 2.68384 36.4014 3.4795V27.2628C36.4014 28.0585 37.0472 28.7042 37.8428 28.7042H43.8478V44.8971C43.695 44.8423 43.5364 44.7991 43.3663 44.7991H36.6407C36.4706 44.7991 36.312 44.8423 36.1593 44.8971V38.6731C36.1593 37.8774 35.5135 37.2317 34.7178 37.2317H27.9922C27.1965 37.2317 26.5508 37.8774 26.5508 38.6731V45.1594C26.5508 45.9551 27.1965 46.6008 27.9922 46.6008H34.7178C34.8879 46.6008 35.0465 46.5576 35.1993 46.5028V52.7269C35.1993 53.5225 35.845 54.1683 36.6407 54.1683H43.3663C44.162 54.1683 44.8077 53.5225 44.8077 52.7269V46.3846C44.9605 46.4394 45.1191 46.4827 45.2892 46.4827H52.0148C52.8105 46.4827 53.4562 45.8369 53.4562 45.0412V37.8342H67.3601Z" fill="white"/>
<path d="M79.9991 28.1084H73.2734C72.4778 28.1084 71.832 28.7542 71.832 29.5498V36.0362C71.832 36.8318 72.4778 37.4776 73.2734 37.4776H79.9991C80.7947 37.4776 81.4405 36.8318 81.4405 36.0362V29.5498C81.4405 28.7513 80.7947 28.1084 79.9991 28.1084Z" fill="white"/>
</svg>
