<svg width="19" height="16" viewBox="0 0 19 16" fill="none" xmlns="http://www.w3.org/2000/svg">
<path d="M0.503906 5.57227C0.503906 5.01998 0.951622 4.57227 1.50391 4.57227H10.7661C11.3184 4.57227 11.7661 5.01998 11.7661 5.57227V15.8344H1.50391C0.951622 15.8344 0.503906 15.3867 0.503906 14.8344V5.57227Z" fill="#43294C"/>
<path d="M14.0181 13.7816H14.4131V13.3866V2C14.4131 1.22956 13.7885 0.605 13.0181 0.605H4.88354C4.11311 0.605 3.48854 1.22956 3.48854 2V13.3866V13.7816H3.88354H14.0181Z" fill="#CACED5" stroke="#43294C" stroke-width="0.79"/>
<path d="M5.5662 7.78688C5.74924 7.4959 6.0689 7.31934 6.41266 7.31934H16.775C17.4925 7.31934 17.9765 8.0526 17.6945 8.71236L14.9097 15.2277C14.7524 15.5958 14.3906 15.8346 13.9902 15.8346H5.93517C3.57496 15.8346 2.1391 13.2351 3.39579 11.2373L5.5662 7.78688Z" fill="#43294C"/>
<rect x="5.03369" y="2.375" width="7.41656" height="0.686718" rx="0.343359" fill="#43294C"/>
<rect x="5.03369" y="4.1582" width="7.41656" height="0.686718" rx="0.343359" fill="#43294C"/>
<rect x="5.03369" y="5.80664" width="4.12031" height="0.686718" rx="0.343359" fill="#43294C"/>
</svg>
