<svg width="15" height="13" viewBox="0 0 15 13" fill="none" xmlns="http://www.w3.org/2000/svg">
<path d="M1.5 0.397351C2.10898 0.397351 2.60265 0.891024 2.60265 1.5C2.60265 2.10898 2.10898 2.60265 1.5 2.60265C0.891024 2.60265 0.397351 2.10898 0.397351 1.5C0.397351 0.891024 0.891024 0.397351 1.5 0.397351Z" fill="#43294C" stroke="#43294C" stroke-width="0.794702"/>
<path d="M1.5 5.39735C2.10898 5.39735 2.60265 5.89102 2.60265 6.5C2.60265 7.10898 2.10898 7.60265 1.5 7.60265C0.891024 7.60265 0.397351 7.10898 0.397351 6.5C0.397351 5.89102 0.891024 5.39735 1.5 5.39735Z" fill="#43294C" stroke="#43294C" stroke-width="0.794702"/>
<path d="M1.5 10.3974C2.10898 10.3974 2.60265 10.891 2.60265 11.5C2.60265 12.109 2.10898 12.6026 1.5 12.6026C0.891024 12.6026 0.397351 12.109 0.397351 11.5C0.397351 10.891 0.891024 10.3974 1.5 10.3974Z" fill="#43294C" stroke="#43294C" stroke-width="0.794702"/>
<rect x="4" y="1" width="11" height="1" rx="0.5" fill="#43294C"/>
<rect x="4" y="6" width="11" height="1" rx="0.5" fill="#43294C"/>
<rect x="4" y="11" width="11" height="1" rx="0.5" fill="#43294C"/>
</svg>
