<svg xmlns="http://www.w3.org/2000/svg" version="1.0" width="576.04638671875" height="233.88079833984375" preserveAspectRatio="xMidYMid meet" style=""><rect id="backgroundrect" width="100%" height="100%" x="0" y="0" fill="none" stroke="none" class="" style=""/>


<g class="currentLayer" style=""><title>Layer 1</title><g transform="translate(-4.635761737823486,1.3245033025741577) translate(0,116) scale(0.10000000149011612,-0.10000000149011612) " fill="#000000" stroke="none" id="svg_1" class="selected">
<path d="M617.0598611644922,821.2721841991818 c-180.94045331402071,-31.561591240060526 -305.2600845025656,-133.7610295412089 -339.72493275285535,-278.0425894957714 c-9.84709950008276,-45.08798748580075 -17.232424125144835,-138.26982828978896 -17.232424125144835,-234.4575349261639 c1.2308874375103451,-142.77862703836905 4.9235497500413805,-166.82555369746285 35.6957356878,-244.97806533951743 c27.079523625227594,-69.13491414489448 46.77372262539311,-93.18184080398821 97.24010756331724,-129.25223079262884 c76.3150211256414,-52.60265206676755 96.0092201258069,-57.11145081534762 385.26776794073794,-81.15837747444134 c291.7203226899518,-24.04692665909374 313.87629656513803,-40.57918873722067 311.4145216901173,-231.4516690937772 c-1.2308874375103451,-213.41647409945696 -36.926623125310364,-243.4751324233241 -295.4129850024829,-243.4751324233241 c-99.70188243833796,0 -196.9419900016552,7.5146645809667945 -219.0979638768414,16.532262078126944 c-46.77372262539311,19.53812791051365 -73.85324625062073,78.1525116420546 -83.70034575070346,180.351949943203 l-7.385324625062071,73.64371289347457 l-116.93430656348276,0 l-116.93430656348276,0 l8.61621206257242,-121.73756621166206 c8.61621206257242,-132.25809662501555 30.772185937758625,-211.91354118326356 72.62235881311037,-266.01912616622445 c36.926623125310364,-49.596786234380836 148.93737993875175,-115.7258345468886 227.71417593941382,-136.76689537359562 c83.70034575070346,-21.04106082670702 388.96043025326895,-21.04106082670702 472.66077600397256,0 c134.1667306886276,34.56745707244724 238.79216287700697,130.75516370882215 273.25701112729666,249.48686408809755 c44.31194775037241,153.29915745172258 34.46484825028967,452.382807774201 -17.232424125144835,557.5881119077361 c-29.541298500248285,58.614383731540975 -114.47253168846207,118.7317003792753 -194.48021512663448,138.26982828978896 c-34.46484825028967,7.5146645809667945 -153.8609296887931,21.04106082670702 -267.1025739397449,30.058658323867174 c-280.6423357523587,21.04106082670702 -308.9527468150967,39.0762558210273 -322.4925086277103,199.8900778537167 c-8.61621206257242,109.71410288211517 16.001536687634488,189.3695474403632 70.16058393808967,226.94287034519715 c38.1575105628207,28.555725407673812 64.00614675053795,31.561591240060526 215.40530156431046,31.561591240060526 c203.09642718920693,0 242.484825189538,-16.532262078126944 263.40991162721383,-109.71410288211517 c7.385324625062071,-30.058658323867174 13.539761812613797,-70.63784706108785 13.539761812613797,-88.67304205540819 c0,-33.06452415625389 3.692662312531037,-34.56745707244724 118.16519400099314,-34.56745707244724 l119.39608143850349,0 l-7.385324625062071,111.21703579830852 c-16.001536687634488,270.52792491480454 -145.24471762622073,380.24202779691973 -457.8901267538483,392.2654911264666 c-81.23857087568278,3.0058658323867182 -180.94045331402071,0 -221.5597387518621,-7.5146645809667945 z" id="svg_2"/>
<path d="M4242.023364632461,812.2545867020222 c0,-7.5146645809667945 419.73261619102766,-745.4547264319057 439.4268151911932,-772.5075189233863 c7.385324625062071,-9.017597497160155 46.77372262539311,51.099719150574195 109.5489819384207,160.81382203268936 l43.08106031286207,76.64957872586129 l-145.24471762622073,272.03085783099783 l-145.24471762622073,272.03085783099783 l-150.16826737626212,0 c-83.70034575070346,0 -151.39915481377244,-4.5087987485800785 -151.39915481377244,-9.017597497160155 z" id="svg_3"/>
<path d="M5304.2792232038855,792.7164587915081 c-89.85478293825521,-37.57332290483395 -137.85939300115868,-87.1701091392148 -233.86861312696553,-244.97806533951743 c-231.40683825194492,-377.236161964533 -865.3138685697725,-1427.7862703836904 -865.3138685697725,-1433.7980020484636 c0,-3.0058658323867182 67.69880906306898,-6.011731664773437 151.39915481377244,-6.011731664773437 l150.16826737626212,1.5029329161933596 l166.16980406389663,279.54552241196467 c91.08567037576553,153.29915745172258 172.32424125144829,288.56311990912485 179.70956587651042,302.08951615486495 c11.077986937593103,18.035194994320303 38.1575105628207,-19.53812791051365 144.01383018871036,-196.88421202133 c200.63465231418624,-332.14817447873213 257.2554744396621,-381.744960713113 451.7356895662966,-396.7742898750467 l110.77986937593106,-9.017597497160155 l0,157.8079562003027 l0,159.31088911649599 l-91.08567037576553,6.011731664773437 c-52.92815981294484,3.0058658323867182 -98.4709950008276,13.52639624574023 -110.77986937593106,25.549859575287098 c-30.772185937758625,31.561591240060526 -317.568958877669,512.5001244219353 -320.0307337526896,536.5470510810289 c-2.4617748750206903,30.058658323867174 265.8716865022346,465.90920401994117 307.7218593775862,500.4766610923883 c27.079523625227594,22.543993742900376 66.46792162555865,36.070389988640606 126.78140606356557,42.08212165341404 l87.39300806323449,9.017597497160155 l0,147.28742578694914 l0,148.79035870314252 l-94.77833268829657,0 c-59.08259700049657,-1.5029329161933596 -120.62696887601379,-12.02346332954687 -160.0153668763448,-28.555725407673812 z" id="svg_4"/>
<path d="M1671.930395110858,362.87764476020743 c-132.9358432511173,-36.070389988640606 -208.01997693924832,-115.7258345468886 -244.94660006455862,-258.5044615852577 c-24.6177487502069,-97.6906395525683 -34.46484825028967,-432.84467986368736 -17.232424125144835,-590.6526360639898 c25.848636187717254,-235.9604678423573 92.31655781327588,-341.16577197589237 243.7157126270483,-384.7508265454998 c87.39300806323449,-25.549859575287098 370.4971186906139,-30.058658323867174 460.35190162886914,-7.5146645809667945 c145.24471762622073,37.57332290483395 216.63618900182075,130.75516370882215 228.94506337692414,302.08951615486495 l7.385324625062071,90.1759749716015 l-125.5505186260552,0 l-124.31963118854485,0 l0,-52.60265206676755 c0,-84.16424330682808 -40.61928543784139,-123.24049912785539 -139.090280438669,-135.26396245740227 c-45.542835187882766,-6.011731664773437 -108.31809450091038,-6.011731664773437 -140.32116787617935,0 c-125.5505186260552,22.543993742900376 -160.0153668763448,78.1525116420546 -166.16980406389663,257.00152866906427 l-3.692662312531037,103.70237121734174 l349.57203225293796,4.5087987485800785 l348.34114481542764,3.0058658323867182 l-4.9235497500413805,192.3754132727499 c-3.692662312531037,172.83728536223617 -7.385324625062071,199.8900778537167 -39.38839800033104,278.0425894957714 c-36.926623125310364,94.6847737201816 -86.16212062572416,147.28742578694914 -168.63157893891727,184.8607486917831 c-76.3150211256414,34.56745707244724 -359.41913175302085,43.5850545696074 -464.04456394140016,13.52639624574023 zm365.57356894057244,-225.43993742900378 c40.61928543784139,-25.549859575287098 60.313484438006896,-78.1525116420546 65.23703418804828,-180.351949943203 l3.692662312531037,-75.1466458096679 l-226.48328850190344,-4.5087987485800785 l-225.25240106439313,-3.0058658323867182 l4.9235497500413805,96.18770663637495 c4.9235497500413805,100.696505384955 27.079523625227594,150.2932916193358 77.54590856315174,175.84315119462295 c44.31194775037241,21.04106082670702 262.17902418970345,15.029329161933587 300.33653475252424,-9.017597497160155 z" id="svg_5"/>
<path d="M2746.495128057389,376.40404100594765 c-178.47867843900002,-31.561591240060526 -273.25701112729666,-151.79622453552923 -302.7983096275449,-384.7508265454998 c-18.463311562655182,-147.28742578694914 -7.385324625062071,-504.9854598409684 19.69419900016552,-613.1966298068903 c29.541298500248285,-115.7258345468886 110.77986937593106,-210.4106082670702 210.481751814269,-244.97806533951743 c86.16212062572416,-30.058658323867174 391.42220512828976,-34.56745707244724 484.969650379076,-9.017597497160155 c131.70495581360692,36.070389988640606 199.40376487667592,147.28742578694914 215.40530156431046,356.19510113782604 l8.61621206257242,108.21116996592184 l-123.0887437510345,0 l-121.85785631352415,0 l-7.385324625062071,-76.64957872586129 c-14.770649250124142,-148.79035870314252 -66.46792162555865,-186.36368160797642 -240.02305031451726,-177.34608411081638 c-174.78601612646898,10.52053041335351 -199.40376487667592,63.12318248012105 -200.63465231418624,419.3182836179471 c-2.4617748750206903,347.1775036406659 23.386861312696556,390.7625582102732 222.79062618937246,390.7625582102732 c152.6300422512828,0 188.3257779390828,-25.549859575287098 204.32731462671725,-145.7844928707558 l7.385324625062071,-64.62611539631442 l115.70341912597246,0 l115.70341912597246,0 l0,64.62611539631442 c0,36.070389988640606 -8.61621206257242,99.19357246876167 -18.463311562655182,142.77862703836905 c-43.08106031286207,175.84315119462295 -131.70495581360692,229.9487361775838 -387.7295428157587,235.9604678423573 c-91.08567037576553,3.0058658323867182 -182.17134075153106,1.5029329161933596 -203.09642718920693,-1.5029329161933596 z" id="svg_6"/>
<path d="M3454.2554046258374,-83.49343134922009 c0,-462.9033381875544 9.84709950008276,-553.0793131591558 65.23703418804828,-656.7816843764979 c46.77372262539311,-85.66717622302143 136.62850556364833,-133.7610295412089 280.6423357523587,-153.29915745172258 c125.5505186260552,-16.532262078126944 253.56281212713114,-6.011731664773437 313.87629656513803,24.04692665909374 c27.079523625227594,13.52639624574023 73.85324625062073,76.64957872586129 151.39915481377244,204.39887660229678 l112.0107568134414,184.8607486917831 l0,410.3006861207868 l0,410.3006861207868 l-123.0887437510345,0 l-123.0887437510345,0 l-1.2308874375103451,-416.31241778556034 c0,-486.9502648466482 -3.692662312531037,-506.4883927571617 -84.93123318821384,-556.0851789915428 c-70.16058393808967,-43.5850545696074 -205.55820206422763,-48.09385331818748 -270.7952362522759,-7.5146645809667945 c-67.69880906306898,40.57918873722067 -72.62235881311037,76.64957872586129 -72.62235881311037,556.0851789915428 l-1.2308874375103451,423.8270823665271 l-123.0887437510345,0 l-123.0887437510345,0 l0,-423.8270823665271 z" id="svg_7"/>
</g></g></svg>