<svg width="319" height="319" viewBox="0 0 319 319" fill="none" xmlns="http://www.w3.org/2000/svg">
<circle cx="159.5" cy="159.5" r="159.5" fill="#27043C"/>
<path d="M150.983 106.68H79.4414L118.774 65.0625L150.983 106.68Z" fill="black"/>
<path d="M150.983 106.68H79.4414L118.774 65.0625L150.983 106.68Z" fill="white"/>
<path d="M118.285 115.625H76L151.669 279.001L118.285 115.625Z" fill="black"/>
<path d="M118.285 115.625H76L151.669 279.001L118.285 115.625Z" fill="white"/>
<path d="M192.944 115.625H127.25L160.246 275.561L192.944 115.625Z" fill="black"/>
<path d="M192.944 115.625H127.25L160.246 275.561L192.944 115.625Z" fill="white"/>
<path d="M201.907 115.625H244.192L168.523 279.001L201.907 115.625Z" fill="black"/>
<path d="M201.907 115.625H244.192L168.523 279.001L201.907 115.625Z" fill="white"/>
<path d="M128.28 62.9994L191.566 62.9994L160.294 104.617L128.28 62.9994Z" fill="black"/>
<path d="M128.28 62.9994L191.566 62.9994L160.294 104.617L128.28 62.9994Z" fill="white"/>
<path d="M240.752 106.68H169.211L201.419 65.0625L240.752 106.68Z" fill="black"/>
<path d="M240.752 106.68H169.211L201.419 65.0625L240.752 106.68Z" fill="white"/>
</svg>
