<svg width="321" height="321" viewBox="0 0 321 321" fill="none" xmlns="http://www.w3.org/2000/svg">
<circle cx="160.699" cy="160.699" r="160" fill="#E84970"/>
<path d="M151.983 107.682H80.4414L119.774 66.0645L151.983 107.682Z" fill="black"/>
<path d="M151.983 107.682H80.4414L119.774 66.0645L151.983 107.682Z" fill="#F5F6FA"/>
<path d="M119.285 116.625H77L152.669 280.001L119.285 116.625Z" fill="black"/>
<path d="M119.285 116.625H77L152.669 280.001L119.285 116.625Z" fill="#F5F6FA"/>
<path d="M193.944 116.625H128.25L161.246 276.561L193.944 116.625Z" fill="black"/>
<path d="M193.944 116.625H128.25L161.246 276.561L193.944 116.625Z" fill="#F5F6FA"/>
<path d="M202.907 116.625H245.192L169.523 280.001L202.907 116.625Z" fill="black"/>
<path d="M202.907 116.625H245.192L169.523 280.001L202.907 116.625Z" fill="#F5F6FA"/>
<path d="M129.28 63.9994L192.566 63.9994L161.294 105.617L129.28 63.9994Z" fill="black"/>
<path d="M129.28 63.9994L192.566 63.9994L161.294 105.617L129.28 63.9994Z" fill="#F5F6FA"/>
<path d="M241.752 107.682H170.211L202.419 66.0645L241.752 107.682Z" fill="black"/>
<path d="M241.752 107.682H170.211L202.419 66.0645L241.752 107.682Z" fill="#F5F6FA"/>
</svg>
