<svg width="319" height="319" viewBox="0 0 319 319" fill="none" xmlns="http://www.w3.org/2000/svg">
<circle cx="159.5" cy="159.5" r="159.5" fill="url(#paint0_linear_1225_833)"/>
<path d="M159.999 46.9165V156.213M159.999 46.9165C135.772 46.9165 113.324 54.5355 94.9204 67.5082M159.999 46.9165C184.219 46.9165 206.66 54.5304 225.06 67.4952M122.305 163.331C125.018 162.408 127.863 161.554 130.847 160.779C134.146 159.922 137.58 159.16 141.152 158.507M122.305 163.331C79.4021 177.928 69.5073 209.885 66.3421 223.393M122.305 163.331L56.955 113.352M141.152 158.507C142.493 158.262 143.853 158.032 145.233 157.818C148.475 157.316 151.825 156.901 155.288 156.582C156.836 156.44 158.406 156.316 159.999 156.213M141.152 158.507L94.9204 67.5082M159.999 156.213C162.084 156.078 164.207 155.977 166.369 155.911C170.39 155.79 174.548 155.793 178.847 155.931M178.847 155.931C181.402 156.013 184.007 156.142 186.663 156.321C189.83 156.535 193.559 156.821 197.694 157.18M178.847 155.931L225.06 67.4952M197.694 157.18L263.024 113.308M197.694 157.18C219.078 159.042 251.3 162.907 272.705 169.31M66.3421 223.393C86.6785 253.38 121.038 273.083 159.999 273.083C175.968 273.083 191.164 269.773 204.939 263.802M66.3421 223.393C54.0798 205.312 46.916 183.493 46.916 160C46.916 143.368 50.5066 127.574 56.955 113.352M56.955 113.352C65.3274 94.8871 78.5172 79.0711 94.9204 67.5082M225.06 67.4952C241.459 79.05 254.647 94.8551 263.024 113.308M263.024 113.308C269.485 127.542 273.083 143.351 273.083 160C273.083 163.135 272.955 166.24 272.705 169.31M272.705 169.31C272.702 169.348 272.699 169.386 272.696 169.424M272.696 169.424C185.325 169.561 145.321 216.023 204.761 263.66L204.939 263.802M272.696 169.424C269.197 211.832 242.297 247.606 204.939 263.802" stroke="white" stroke-width="12"/>
<defs>
<linearGradient id="paint0_linear_1225_833" x1="0" y1="0" x2="319" y2="319" gradientUnits="userSpaceOnUse">
<stop offset="0.104757" stop-color="#149EED"/>
<stop offset="0.895243" stop-color="#B440FC"/>
</linearGradient>
</defs>
</svg>
