<svg width="321" height="321" viewBox="0 0 321 321" fill="none" xmlns="http://www.w3.org/2000/svg">
<circle cx="160.5" cy="160.5" r="160.5" fill="#F1F5F9"/>
<path d="M131.847 161.779L133.355 167.586L133.355 167.586L131.847 161.779ZM146.233 158.818L147.152 164.748L147.152 164.748L146.233 158.818ZM156.288 157.582L155.737 151.607L155.737 151.607L156.288 157.582ZM167.369 156.911L167.188 150.914L167.188 150.914L167.369 156.911ZM187.663 157.321L187.258 163.308L187.258 163.308L187.663 157.321ZM205.761 264.66L209.517 259.981L209.514 259.978L205.761 264.66ZM67.3421 224.393L62.3764 227.761L62.3764 227.761L67.3421 224.393ZM57.955 114.352L52.4905 111.875L52.4905 111.875L57.955 114.352ZM95.9204 68.5082L92.4634 63.6042L92.4634 63.6042L95.9204 68.5082ZM226.06 68.4952L229.516 63.5904L229.516 63.5904L226.06 68.4952ZM205.939 264.802L208.325 270.307L205.939 264.802ZM125.237 170.011C127.807 169.137 130.511 168.325 133.355 167.586L130.338 155.972C127.215 156.783 124.228 157.679 121.372 158.651L125.237 170.011ZM133.355 167.586C136.511 166.766 139.802 166.037 143.231 165.41L141.073 153.605C137.359 154.284 133.782 155.077 130.338 155.972L133.355 167.586ZM143.231 165.41C144.519 165.174 145.825 164.953 147.152 164.748L145.314 152.889C143.881 153.111 142.467 153.35 141.073 153.605L143.231 165.41ZM147.152 164.748C150.269 164.264 153.497 163.864 156.838 163.557L155.737 151.607C152.154 151.937 148.68 152.367 145.314 152.889L147.152 164.748ZM156.838 163.557C158.331 163.419 159.848 163.3 161.388 163.2L160.611 151.225C158.964 151.332 157.34 151.46 155.737 151.607L156.838 163.557ZM161.388 163.2C163.402 163.07 165.456 162.972 167.55 162.909L167.188 150.914C164.957 150.981 162.765 151.086 160.611 151.225L161.388 163.2ZM167.55 162.909C171.444 162.791 175.477 162.794 179.655 162.928L180.039 150.934C175.619 150.792 171.337 150.789 167.188 150.914L167.55 162.909ZM179.655 162.928C182.138 163.007 184.672 163.133 187.258 163.308L188.067 151.335C185.342 151.151 182.666 151.018 180.039 150.934L179.655 162.928ZM187.258 163.308C190.385 163.519 194.076 163.801 198.173 164.158L199.214 152.203C195.043 151.84 191.275 151.552 188.067 151.335L187.258 163.308ZM166.999 157.213V47.9165H154.999V157.213H166.999ZM73.1839 225.762C76.142 213.138 85.187 183.638 125.237 170.011L121.372 158.651C75.6172 174.218 64.8725 208.633 61.5004 223.024L73.1839 225.762ZM160.999 268.083C124.111 268.083 91.5754 249.436 72.3079 221.025L62.3764 227.761C83.7816 259.323 119.965 280.083 160.999 280.083V268.083ZM72.3079 221.025C60.6983 203.907 53.916 183.254 53.916 161H41.916C41.916 185.731 49.4614 208.717 62.3764 227.761L72.3079 221.025ZM126.95 159.565L61.5999 109.586L54.3101 119.118L119.66 169.097L126.95 159.565ZM53.916 161C53.916 145.239 57.3171 130.289 63.4195 116.83L52.4905 111.875C45.6962 126.86 41.916 143.496 41.916 161H53.916ZM63.4195 116.83C71.3462 99.3478 83.8385 84.3658 99.3773 73.4123L92.4634 63.6042C75.1959 75.7763 61.3085 92.4264 52.4905 111.875L63.4195 116.83ZM99.3773 73.4123C116.802 61.1294 138.049 53.9165 160.999 53.9165V41.9165C135.494 41.9165 111.845 49.9416 92.4634 63.6042L99.3773 73.4123ZM90.5711 71.2259L136.803 162.225L147.501 156.79L101.27 65.7906L90.5711 71.2259ZM220.742 65.7163L174.529 154.152L185.164 159.71L231.378 71.274L220.742 65.7163ZM160.999 53.9165C183.942 53.9165 205.182 61.1245 222.604 73.3999L229.516 63.5904C210.138 49.9363 186.496 41.9165 160.999 41.9165V53.9165ZM222.604 73.3999C238.139 84.3458 250.63 99.3175 258.56 116.788L269.487 111.828C260.665 92.3927 246.779 75.7541 229.516 63.5904L222.604 73.3999ZM258.56 116.788C264.675 130.258 268.083 145.223 268.083 161H280.083C280.083 143.478 276.295 126.825 269.487 111.828L258.56 116.788ZM202.039 163.162L267.369 119.289L260.679 109.327L195.349 153.199L202.039 163.162ZM198.173 164.158C219.542 166.018 251.223 169.848 271.986 176.058L275.424 164.561C253.378 157.967 220.614 154.066 199.214 152.203L198.173 164.158ZM268.083 161C268.083 163.972 267.962 166.914 267.725 169.823L279.685 170.797C279.949 167.565 280.083 164.297 280.083 161H268.083ZM267.725 169.823C267.722 169.858 267.719 169.894 267.716 169.93L279.675 170.917C279.679 170.877 279.682 170.837 279.685 170.797L267.725 169.823ZM209.514 259.978C195.191 248.499 187.542 237.617 184.771 228.169C182.083 219.006 183.818 210.703 189.435 203.381C195.217 195.844 205.362 189.078 219.788 184.19C234.15 179.323 252.362 176.457 273.705 176.424L273.686 164.424C251.344 164.459 231.792 167.452 215.937 172.824C200.147 178.175 187.623 186.028 179.914 196.077C172.038 206.343 169.457 218.596 173.256 231.547C176.971 244.212 186.611 257.001 202.009 269.342L209.514 259.978ZM267.716 169.93C264.404 210.071 238.939 243.956 203.552 259.297L208.325 270.307C247.656 253.256 275.989 215.594 279.675 170.917L267.716 169.93ZM203.552 259.297C190.517 264.948 176.132 268.083 160.999 268.083V280.083C177.805 280.083 193.812 276.599 208.325 270.307L203.552 259.297ZM202.006 269.339L202.183 269.481L209.694 260.123L209.517 259.981L202.006 269.339Z" fill="url(#paint0_linear_1979_1529)"/>
<defs>
<linearGradient id="paint0_linear_1979_1529" x1="47.916" y1="47.9165" x2="274.083" y2="274.083" gradientUnits="userSpaceOnUse">
<stop offset="0.104757" stop-color="#149EED"/>
<stop offset="0.895243" stop-color="#B440FC"/>
</linearGradient>
</defs>
</svg>
