<svg width="319" height="319" viewBox="0 0 319 319" fill="none" xmlns="http://www.w3.org/2000/svg">
<circle cx="159.5" cy="159.5" r="159.5" fill="#F5F6FA"/>
<path d="M150.983 106.682H79.4414L118.774 65.0645L150.983 106.682Z" fill="black"/>
<path d="M150.983 106.682H79.4414L118.774 65.0645L150.983 106.682Z" fill="#242729"/>
<path d="M118.285 115.624H76L151.669 279L118.285 115.624Z" fill="black"/>
<path d="M118.285 115.624H76L151.669 279L118.285 115.624Z" fill="#242729"/>
<path d="M192.944 115.625H127.25L160.246 275.561L192.944 115.625Z" fill="black"/>
<path d="M192.944 115.625H127.25L160.246 275.561L192.944 115.625Z" fill="#242729"/>
<path d="M201.907 115.625H244.192L168.523 279.001L201.907 115.625Z" fill="black"/>
<path d="M201.907 115.625H244.192L168.523 279.001L201.907 115.625Z" fill="#242729"/>
<path d="M128.28 63.0003L191.566 63.0003L160.294 104.618L128.28 63.0003Z" fill="black"/>
<path d="M128.28 63.0003L191.566 63.0003L160.294 104.618L128.28 63.0003Z" fill="#242729"/>
<path d="M240.752 106.681H169.211L201.419 65.0635L240.752 106.681Z" fill="black"/>
<path d="M240.752 106.681H169.211L201.419 65.0635L240.752 106.681Z" fill="#242729"/>
</svg>
