<svg width="1177" height="1024" viewBox="0 0 1177 1024" fill="none" xmlns="http://www.w3.org/2000/svg">
<g filter="url(#filter0_f_2551_2236)">
<path d="M95.6411 1024C61.1818 790.943 130.684 511.325 566.23 511.325C919.176 511.325 961.383 214.909 970.58 0H1089C1056.37 187.531 955.517 562.593 566.23 562.593C176.943 562.593 181.03 870.198 216.306 1024H95.6411Z" fill="url(#paint0_linear_2551_2236)"/>
<path d="M95.6411 1024C61.1818 790.943 130.684 511.325 566.23 511.325C919.176 511.325 961.383 214.909 970.58 0H1089C1056.37 187.531 955.517 562.593 566.23 562.593C176.943 562.593 181.03 870.198 216.306 1024H95.6411Z" fill="url(#paint1_linear_2551_2236)"/>
</g>
<g filter="url(#filter1_f_2551_2236)">
<path d="M95.6411 1024C61.1818 790.943 130.684 511.325 566.23 511.325C919.176 511.325 961.383 214.909 970.58 0H1089C1056.37 187.531 955.517 562.593 566.23 562.593C176.943 562.593 181.03 870.198 216.306 1024H95.6411Z" fill="url(#paint2_linear_2551_2236)"/>
</g>
<path opacity="0.5" d="M95.6411 1024C61.1818 790.943 130.684 511.325 566.23 511.325C919.176 511.325 961.383 214.909 970.58 0H1089C1056.37 187.531 955.517 562.593 566.23 562.593C176.943 562.593 181.03 870.198 216.306 1024H95.6411Z" stroke="url(#paint3_linear_2551_2236)"/>
<path opacity="0.5" d="M57.2365 1024C20.092 791.184 95.0099 511.854 564.495 511.854C944.943 511.854 990.438 215.744 1000.35 1.05664H1128C1092.83 188.394 984.116 563.069 564.495 563.069C144.874 563.069 149.28 870.356 187.304 1024H57.2365Z" stroke="url(#paint4_linear_2551_2236)"/>
<path opacity="0.5" d="M117.305 1024C84.3606 791.184 150.808 511.854 567.209 511.854C904.641 511.854 944.992 215.744 953.785 1.05664H1067C1035.81 188.394 939.384 563.069 567.209 563.069C195.034 563.069 198.941 870.356 232.666 1024H117.305Z" stroke="url(#paint5_linear_2551_2236)" stroke-width="3"/>
<path opacity="0.5" d="M142.908 1024C111.754 791.184 174.59 511.854 568.366 511.854C887.463 511.854 925.622 215.744 933.937 1.05664H1041C1011.5 188.394 920.319 563.069 568.366 563.069C216.413 563.069 220.108 870.356 252.001 1024H142.908Z" stroke="url(#paint6_linear_2551_2236)"/>
<path opacity="0.5" d="M189.534 1024C155.557 791.184 224.087 511.854 653.542 511.854C1001.55 511.854 1043.17 215.744 1052.24 1.05664H1169C1136.83 188.394 1037.38 563.069 653.542 563.069C269.699 563.069 273.729 870.356 308.511 1024H189.534Z" stroke="url(#paint7_linear_2551_2236)" stroke-width="2"/>
<defs>
<filter id="filter0_f_2551_2236" x="56" y="-32" width="1065" height="1088" filterUnits="userSpaceOnUse" color-interpolation-filters="sRGB">
<feFlood flood-opacity="0" result="BackgroundImageFix"/>
<feBlend mode="normal" in="SourceGraphic" in2="BackgroundImageFix" result="shape"/>
<feGaussianBlur stdDeviation="16" result="effect1_foregroundBlur_2551_2236"/>
</filter>
<filter id="filter1_f_2551_2236" x="0" y="-88" width="1177" height="1200" filterUnits="userSpaceOnUse" color-interpolation-filters="sRGB">
<feFlood flood-opacity="0" result="BackgroundImageFix"/>
<feBlend mode="normal" in="SourceGraphic" in2="BackgroundImageFix" result="shape"/>
<feGaussianBlur stdDeviation="44" result="effect1_foregroundBlur_2551_2236"/>
</filter>
<linearGradient id="paint0_linear_2551_2236" x1="88" y1="0" x2="1111.74" y2="1000.74" gradientUnits="userSpaceOnUse">
<stop offset="0.104757" stop-color="#149EED"/>
<stop offset="0.895243" stop-color="#B440FC"/>
</linearGradient>
<linearGradient id="paint1_linear_2551_2236" x1="767.386" y1="8.51757" x2="505.07" y2="1066.78" gradientUnits="userSpaceOnUse">
<stop stop-color="#0F172A"/>
<stop offset="0.494792" stop-opacity="0"/>
<stop offset="1" stop-color="#0F172A"/>
</linearGradient>
<linearGradient id="paint2_linear_2551_2236" x1="88" y1="0" x2="1111.74" y2="1000.74" gradientUnits="userSpaceOnUse">
<stop offset="0.104757" stop-color="#149EED"/>
<stop offset="0.895243" stop-color="#B440FC"/>
</linearGradient>
<linearGradient id="paint3_linear_2551_2236" x1="588.5" y1="0" x2="588.5" y2="1024" gradientUnits="userSpaceOnUse">
<stop stop-color="white" stop-opacity="0"/>
<stop offset="0.515625" stop-color="white"/>
<stop offset="1" stop-color="white" stop-opacity="0"/>
</linearGradient>
<linearGradient id="paint4_linear_2551_2236" x1="588.5" y1="1.05664" x2="588.5" y2="1024" gradientUnits="userSpaceOnUse">
<stop stop-color="white" stop-opacity="0"/>
<stop offset="0.515625" stop-color="white"/>
<stop offset="1" stop-color="white" stop-opacity="0"/>
</linearGradient>
<linearGradient id="paint5_linear_2551_2236" x1="588.5" y1="1.05664" x2="588.5" y2="1024" gradientUnits="userSpaceOnUse">
<stop stop-color="white" stop-opacity="0"/>
<stop offset="0.515625" stop-color="white"/>
<stop offset="1" stop-color="white" stop-opacity="0"/>
</linearGradient>
<linearGradient id="paint6_linear_2551_2236" x1="588.5" y1="1.05664" x2="588.5" y2="1024" gradientUnits="userSpaceOnUse">
<stop stop-color="white" stop-opacity="0"/>
<stop offset="0.515625" stop-color="white"/>
<stop offset="1" stop-color="white" stop-opacity="0"/>
</linearGradient>
<linearGradient id="paint7_linear_2551_2236" x1="675.5" y1="1.05664" x2="675.5" y2="1024" gradientUnits="userSpaceOnUse">
<stop stop-color="white" stop-opacity="0"/>
<stop offset="0.515625" stop-color="white"/>
<stop offset="1" stop-color="white" stop-opacity="0"/>
</linearGradient>
</defs>
</svg>
