<svg width="135" height="135" viewBox="0 0 135 135" fill="none" xmlns="http://www.w3.org/2000/svg">
<circle cx="67.5" cy="67.5" r="67.5" fill="#E84970"/>
<path d="M51.1176 78.9336H38.4968C35.8841 78.9336 33.7637 81.054 33.7637 83.6667V96.2875C33.7637 98.9002 35.8841 101.021 38.4968 101.021H51.1176C53.7326 101.021 55.8507 98.9002 55.8507 96.2875V83.6667C55.8507 81.0517 53.7326 78.9336 51.1176 78.9336ZM47.5701 92.7377H42.0466V87.2141H47.5701V92.7377Z" fill="white"/>
<path d="M96.0844 101.021C98.6994 101.021 100.817 98.9002 100.817 96.2875V83.6667C100.817 81.054 98.6994 78.9336 96.0844 78.9336H83.4636C80.8509 78.9336 78.7305 81.054 78.7305 83.6667V96.2875C78.7305 98.9002 80.8509 101.021 83.4636 101.021H96.0844ZM87.0134 87.2141H92.5369V92.7377H87.0134V87.2141Z" fill="white"/>
<path d="M55.8507 51.3266V38.7058C55.8507 36.0931 53.7326 33.9727 51.1176 33.9727H38.4968C35.8841 33.9727 33.7637 36.0931 33.7637 38.7058V51.3266C33.7637 53.9392 35.8841 56.0597 38.4968 56.0597H51.1176C53.7326 56.0597 55.8507 53.9392 55.8507 51.3266ZM47.5701 47.7767H42.0466V42.2532H47.5701V47.7767Z" fill="white"/>
<path d="M69.3646 84.9492H63.8434C63.1903 84.9492 62.6602 85.4793 62.6602 86.1325V100.923C62.6602 101.577 63.1903 102.107 63.8434 102.107H69.3646C70.0178 102.107 70.5479 101.577 70.5479 100.923V86.1325C70.5479 85.4793 70.0178 84.9492 69.3646 84.9492Z" fill="white"/>
<path d="M35.4391 64.5391C34.786 64.5391 34.2559 65.0692 34.2559 65.7223V71.0471C34.2559 71.7002 34.786 72.2303 35.4391 72.2303H40.9603C41.6135 72.2303 42.1436 71.7002 42.1436 71.0471V65.7223C42.1436 65.0692 41.6135 64.5391 40.9603 64.5391H35.4391Z" fill="white"/>
<path d="M100.621 36.8278C100.621 36.1746 100.091 35.6445 99.438 35.6445H94.5085H93.9168H86.6208C85.9676 35.6445 85.4375 36.1746 85.4375 36.8278V42.1525C85.4375 42.8057 85.9676 43.3358 86.6208 43.3358H92.7336V49.2522C92.7336 49.9054 93.2637 50.4355 93.9168 50.4355H99.438C100.091 50.4355 100.621 49.9054 100.621 49.2522V36.8278Z" fill="white"/>
<path d="M89.0595 65.03C89.7126 65.03 90.2427 64.4999 90.2427 63.8467V56.1554C90.2427 55.5022 89.7126 54.9721 89.0595 54.9721H76.4623H76.4387H71.5328V49.9432H75.9701C76.6232 49.9432 77.1534 49.4131 77.1534 48.7599V43.4352C77.1534 42.782 76.6232 42.2519 75.9701 42.2519H71.5328V36.8278C71.5328 36.1746 71.0027 35.6445 70.3495 35.6445H64.8284C64.1752 35.6445 63.6451 36.1746 63.6451 36.8278V56.3518C63.6451 57.005 64.1752 57.5351 64.8284 57.5351H69.7579V70.828C69.6325 70.783 69.5023 70.7475 69.3627 70.7475H63.8415C63.7019 70.7475 63.5717 70.783 63.4463 70.828V65.7186C63.4463 65.0655 62.9162 64.5354 62.263 64.5354H56.7419C56.0887 64.5354 55.5586 65.0655 55.5586 65.7186V71.0434C55.5586 71.6965 56.0887 72.2266 56.7419 72.2266H62.263C62.4027 72.2266 62.5328 72.1911 62.6582 72.1462V77.2556C62.6582 77.9087 63.1883 78.4388 63.8415 78.4388H69.3627C70.0158 78.4388 70.5459 77.9087 70.5459 77.2556V72.0491C70.6714 72.0941 70.8015 72.1296 70.9412 72.1296H76.4623C77.1155 72.1296 77.6456 71.5995 77.6456 70.9463V65.03H89.0595Z" fill="white"/>
<path d="M99.4369 57.0469H93.9157C93.2625 57.0469 92.7324 57.577 92.7324 58.2301V63.5549C92.7324 64.2081 93.2625 64.7382 93.9157 64.7382H99.4369C100.09 64.7382 100.62 64.2081 100.62 63.5549V58.2301C100.62 57.5746 100.09 57.0469 99.4369 57.0469Z" fill="white"/>
</svg>
