<svg width="319" height="319" viewBox="0 0 319 319" fill="none" xmlns="http://www.w3.org/2000/svg">
<circle cx="159.5" cy="159.5" r="159.5" fill="#2E3234"/>
<rect x="42" y="93" width="22" height="22" rx="5" fill="#E84970"/>
<rect x="179" y="93" width="22" height="22" rx="5" fill="#242729"/>
<rect x="42" y="130" width="22" height="22" rx="5" fill="#242729"/>
<rect x="179" y="130" width="22" height="22" rx="5" fill="#E84970"/>
<rect x="42" y="167" width="22" height="22" rx="5" fill="#E84970"/>
<rect x="179" y="167" width="22" height="22" rx="5" fill="#242729"/>
<rect x="42" y="204" width="22" height="22" rx="5" fill="#242729"/>
<rect x="179" y="204" width="22" height="22" rx="5" fill="#E84970"/>
<rect x="79" y="93" width="62" height="22" rx="5" fill="#E84970"/>
<rect x="216" y="93" width="62" height="22" rx="5" fill="#242729"/>
<rect x="79" y="130" width="62" height="22" rx="5" fill="#242729"/>
<rect x="216" y="130" width="62" height="22" rx="5" fill="#E84970"/>
<rect x="79" y="167" width="62" height="22" rx="5" fill="#E84970"/>
<rect x="216" y="167" width="62" height="22" rx="5" fill="#242729"/>
<rect x="79" y="204" width="62" height="22" rx="5" fill="#242729"/>
<rect x="216" y="204" width="62" height="22" rx="5" fill="#E84970"/>
</svg>
