<svg width="319" height="319" viewBox="0 0 319 319" fill="none" xmlns="http://www.w3.org/2000/svg">
<path d="M159.5 319C247.589 319 319 247.589 319 159.5C319 71.4106 247.589 0 159.5 0C71.4106 0 0 71.4106 0 159.5C0 247.589 71.4106 319 159.5 319Z" fill="url(#paint0_linear_1986_1555)"/>
<path d="M59 93H47C44.2386 93 42 95.2386 42 98V110C42 112.761 44.2386 115 47 115H59C61.7614 115 64 112.761 64 110V98C64 95.2386 61.7614 93 59 93Z" fill="black"/>
<path d="M196 93H184C181.239 93 179 95.2386 179 98V110C179 112.761 181.239 115 184 115H196C198.761 115 201 112.761 201 110V98C201 95.2386 198.761 93 196 93Z" fill="black" fill-opacity="0.5"/>
<path d="M59 130H47C44.2386 130 42 132.239 42 135V147C42 149.761 44.2386 152 47 152H59C61.7614 152 64 149.761 64 147V135C64 132.239 61.7614 130 59 130Z" fill="black" fill-opacity="0.5"/>
<path d="M196 130H184C181.239 130 179 132.239 179 135V147C179 149.761 181.239 152 184 152H196C198.761 152 201 149.761 201 147V135C201 132.239 198.761 130 196 130Z" fill="black"/>
<path d="M59 167H47C44.2386 167 42 169.239 42 172V184C42 186.761 44.2386 189 47 189H59C61.7614 189 64 186.761 64 184V172C64 169.239 61.7614 167 59 167Z" fill="black"/>
<path d="M196 167H184C181.239 167 179 169.239 179 172V184C179 186.761 181.239 189 184 189H196C198.761 189 201 186.761 201 184V172C201 169.239 198.761 167 196 167Z" fill="black" fill-opacity="0.5"/>
<path d="M59 204H47C44.2386 204 42 206.239 42 209V221C42 223.761 44.2386 226 47 226H59C61.7614 226 64 223.761 64 221V209C64 206.239 61.7614 204 59 204Z" fill="black" fill-opacity="0.5"/>
<path d="M196 204H184C181.239 204 179 206.239 179 209V221C179 223.761 181.239 226 184 226H196C198.761 226 201 223.761 201 221V209C201 206.239 198.761 204 196 204Z" fill="black"/>
<path d="M136 93H84C81.2386 93 79 95.2386 79 98V110C79 112.761 81.2386 115 84 115H136C138.761 115 141 112.761 141 110V98C141 95.2386 138.761 93 136 93Z" fill="black"/>
<path d="M273 93H221C218.239 93 216 95.2386 216 98V110C216 112.761 218.239 115 221 115H273C275.761 115 278 112.761 278 110V98C278 95.2386 275.761 93 273 93Z" fill="black" fill-opacity="0.5"/>
<path d="M136 130H84C81.2386 130 79 132.239 79 135V147C79 149.761 81.2386 152 84 152H136C138.761 152 141 149.761 141 147V135C141 132.239 138.761 130 136 130Z" fill="black" fill-opacity="0.5"/>
<path d="M273 130H221C218.239 130 216 132.239 216 135V147C216 149.761 218.239 152 221 152H273C275.761 152 278 149.761 278 147V135C278 132.239 275.761 130 273 130Z" fill="black"/>
<path d="M136 167H84C81.2386 167 79 169.239 79 172V184C79 186.761 81.2386 189 84 189H136C138.761 189 141 186.761 141 184V172C141 169.239 138.761 167 136 167Z" fill="black"/>
<path d="M273 167H221C218.239 167 216 169.239 216 172V184C216 186.761 218.239 189 221 189H273C275.761 189 278 186.761 278 184V172C278 169.239 275.761 167 273 167Z" fill="black" fill-opacity="0.5"/>
<path d="M136 204H84C81.2386 204 79 206.239 79 209V221C79 223.761 81.2386 226 84 226H136C138.761 226 141 223.761 141 221V209C141 206.239 138.761 204 136 204Z" fill="black" fill-opacity="0.5"/>
<path d="M273 204H221C218.239 204 216 206.239 216 209V221C216 223.761 218.239 226 221 226H273C275.761 226 278 223.761 278 221V209C278 206.239 275.761 204 273 204Z" fill="black"/>
<defs>
<linearGradient id="paint0_linear_1986_1555" x1="0" y1="0" x2="319" y2="319" gradientUnits="userSpaceOnUse">
<stop offset="0.104757" stop-color="#149EED"/>
<stop offset="0.895243" stop-color="#B440FC"/>
</linearGradient>
</defs>
</svg>
