<svg width="200" height="200" viewBox="0 0 200 200" fill="none" xmlns="http://www.w3.org/2000/svg">
<path d="M100 0C44.8 0 0 44.8 0 100C0 155.2 44.8 200 100 200C155.2 200 200 155.2 200 100C199.933 44.8 155.2 0.0666667 100 0ZM151.4 71.6L84.8 138.133C83.8667 139.133 82.6 139.8 81.2 140C80.8 140.067 80.3333 140.133 79.9333 140.133C79.6 140.133 79.2 140.133 78.8667 140C77.4667 139.8 76.2 139.133 75.2667 138.133L48.6 111.533C46 108.933 46 104.733 48.6 102.133C51.2 99.5333 55.4667 99.5333 58.0667 102.133L80.0667 124.133L141.933 62.2C144.533 59.6 148.8 59.6 151.4 62.2C154 64.8 154.067 68.9333 151.467 71.6C151.467 71.6 151.467 71.6 151.4 71.6Z" fill="#42B983"/>
</svg>
