<svg width="78" height="76" viewBox="0 0 78 76" fill="none" xmlns="http://www.w3.org/2000/svg">
<path d="M12.6641 19.7393L21.7574 62.9327C24.0308 70.4022 29.5517 73.0004 39.9441 73.0004C48.3953 73.0004 55.6459 70.4934 57.8061 62.9327C59.9663 55.372 64.3013 30.8894 65.9252 19.7393" stroke="#E84970" stroke-width="5"/>
<path d="M21.7582 19.7271C19.4831 11.6112 27.6708 3.26758 38.8426 3.00777C50.0144 2.74796 57.4828 9.01982 57.4817 19.4024" stroke="#E84970" stroke-width="5"/>
<rect y="16.8164" width="77.9431" height="5.1962" rx="2.5981" fill="#E84970"/>
<rect y="16.8164" width="77.9431" height="5.1962" rx="2.5981" stroke="#E84970"/>
<rect x="30.2432" y="28.3032" width="33.1727" height="4.4149" rx="2.20745" transform="rotate(78.8213 30.2432 28.3032)" fill="#E84970" stroke="#E84970"/>
<rect x="53.4524" y="29.0984" width="33.1727" height="4.4149" rx="2.20745" transform="rotate(100.294 53.4524 29.0984)" fill="#E84970" stroke="#E84970"/>
</svg>
