<svg width="129" height="26" viewBox="0 0 129 26" fill="none" xmlns="http://www.w3.org/2000/svg">
<path d="M5.89099 22.5036H2.10789C1.21091 22.5036 0.762419 22.5036 0.493821 22.3305C0.203539 22.1434 0.020433 21.8295 0.00100961 21.4857C-0.0169624 21.1676 0.205229 20.7797 0.649605 20.0038L8.93254 5.5423C9.38333 4.75517 9.60875 4.3616 9.89555 4.2151C10.2054 4.05681 10.5728 4.05654 10.8829 4.21438C11.1699 4.36046 11.3959 4.7537 11.8479 5.54018L13.7582 8.86424C14.0869 9.43614 14.2512 9.72209 14.3235 10.0238C14.4021 10.3522 14.4023 10.6944 14.3239 11.0228C14.2519 11.3246 14.0878 11.6107 13.7596 12.1829L8.80654 20.8184C8.4736 21.399 8.3071 21.6892 8.079 21.9062C7.83068 22.1424 7.52959 22.3165 7.20047 22.414C6.89807 22.5036 6.56239 22.5036 5.89099 22.5036Z" fill="#4C2E56"/>
<path d="M19.3872 22.5036H15.0011C14.096 22.5036 13.6434 22.5036 13.374 22.329C13.0829 22.1403 12.9003 21.824 12.8831 21.4786C12.8672 21.159 13.0949 20.7695 13.5504 19.9907L15.7399 16.2472C16.1896 15.4782 16.4145 15.0937 16.6993 14.9497C17.007 14.794 17.3708 14.7938 17.6788 14.949C17.9638 15.0925 18.1892 15.4768 18.6401 16.2451L20.8367 19.9886C21.294 20.7679 21.5226 21.1576 21.507 21.4775C21.4901 21.8232 21.3076 22.1398 21.0164 22.3288C20.7469 22.5036 20.2937 22.5036 19.3872 22.5036Z" fill="#4C2E56"/>
<path d="M38.3836 22.5036H34.6006C33.7036 22.5036 33.2551 22.5036 32.9865 22.3305C32.6962 22.1434 32.5131 21.8295 32.4937 21.4857C32.4758 21.1676 32.6979 20.7797 33.1423 20.0038L41.4252 5.5423C41.876 4.75517 42.1014 4.3616 42.3882 4.2151C42.6981 4.05681 43.0655 4.05654 43.3756 4.21438C43.6626 4.36046 43.8886 4.7537 44.3405 5.54018L46.2509 8.86424C46.5796 9.43614 46.7439 9.72209 46.8162 10.0238C46.8948 10.3522 46.895 10.6944 46.8166 11.0228C46.7446 11.3246 46.5805 11.6107 46.2523 12.1829L41.2992 20.8184C40.9663 21.399 40.7998 21.6892 40.5717 21.9062C40.3234 22.1424 40.0223 22.3165 39.6932 22.414C39.3908 22.5036 39.0551 22.5036 38.3836 22.5036Z" fill="#4C2E56"/>
<path d="M51.8799 22.5036H47.4938C46.5886 22.5036 46.136 22.5036 45.8667 22.329C45.5756 22.1403 45.393 21.824 45.3758 21.4786C45.3598 21.159 45.5876 20.7695 46.0431 19.9907L48.2325 16.2472C48.6823 15.4782 48.9071 15.0937 49.1919 14.9497C49.4997 14.794 49.8635 14.7938 50.1715 14.949C50.4564 15.0925 50.6818 15.4768 51.1327 16.2451L53.3294 19.9886C53.7867 20.7679 54.0153 21.1576 53.9997 21.4775C53.9828 21.8232 53.8003 22.1398 53.509 22.3288C53.2395 22.5036 52.7863 22.5036 51.8799 22.5036Z" fill="#4C2E56"/>
<path d="M22.3047 3.50366H18.4237C17.5275 3.50366 17.0794 3.50366 16.8109 3.67665C16.5207 3.8636 16.3376 4.17724 16.3179 4.52084C16.2997 4.83878 16.5213 5.22655 16.9646 6.0021L25.2164 20.4402C25.6764 21.2452 25.9065 21.6478 26.1971 21.7944C26.5111 21.9528 26.8828 21.9494 27.1938 21.7852C27.4817 21.6333 27.7043 21.2267 28.1494 20.4134L30.1261 16.8023C30.4381 16.2324 30.594 15.9474 30.6602 15.6485C30.7323 15.3231 30.7277 14.9856 30.6468 14.6623C30.5724 14.3653 30.4087 14.0846 30.0814 13.5233L25.2081 5.16791C24.8736 4.59436 24.7064 4.3076 24.4787 4.09327C24.2309 3.85999 23.9313 3.68827 23.6043 3.59206C23.3038 3.50366 22.9708 3.50366 22.3047 3.50366Z" fill="#4C2E56"/>
<path d="M35.7087 3.50366H31.3164C30.4121 3.50366 29.9599 3.50366 29.6907 3.67811C29.3996 3.86662 29.217 4.18263 29.1995 4.5279C29.1834 4.84741 29.4105 5.23668 29.8649 6.01521L32.0574 9.77209C32.5073 10.543 32.7323 10.9284 33.0173 11.0726C33.3252 11.2286 33.6894 11.2288 33.9976 11.0734C34.2827 10.9295 34.5082 10.5444 34.9592 9.77416L37.159 6.01727C37.6151 5.23827 37.8432 4.84877 37.8273 4.52902C37.8102 4.18348 37.6277 3.8671 37.3365 3.67834C37.0671 3.50366 36.6143 3.50366 35.7087 3.50366Z" fill="#4C2E56"/>
<path d="M62.7653 21H65.9123L68.8132 11.0146H68.9325L71.8409 21H74.9879L79.358 5.72727H75.8306L73.3026 16.3615H73.1683L70.3867 5.72727H67.3665L64.5774 16.3391H64.4506L61.9226 5.72727H58.3952L62.7653 21ZM82.6424 21.2163C84.3352 21.2163 85.4315 20.478 85.9908 19.4116H86.0803V21H89.0931V13.2741C89.0931 10.5447 86.7813 9.39631 84.2308 9.39631C81.4865 9.39631 79.6818 10.7088 79.2418 12.7969L82.1801 13.0355C82.3963 12.2749 83.0749 11.7156 84.2159 11.7156C85.2972 11.7156 85.9162 12.2599 85.9162 13.1996V13.2443C85.9162 13.9826 85.1332 14.0795 83.1421 14.2734C80.875 14.4822 78.8391 15.2429 78.8391 17.8008C78.8391 20.0678 80.4574 21.2163 82.6424 21.2163ZM83.5522 19.0238C82.5753 19.0238 81.8743 18.5689 81.8743 17.6964C81.8743 16.8015 82.6126 16.3615 83.7312 16.2049C84.4247 16.108 85.5582 15.9439 85.9386 15.6903V16.9059C85.9386 18.1065 84.9467 19.0238 83.5522 19.0238ZM94.3146 5.72727H91.1377V21H94.3146V5.72727ZM99.6162 5.72727H96.4394V21H99.6162V5.72727ZM106.961 21.2237C109.795 21.2237 111.704 19.8441 112.152 17.7188L109.213 17.5249C108.893 18.3974 108.072 18.8523 107.013 18.8523C105.425 18.8523 104.418 17.8008 104.418 16.093V16.0856H112.219V15.2131C112.219 11.3203 109.862 9.39631 106.834 9.39631C103.464 9.39631 101.279 11.7901 101.279 15.3249C101.279 18.9567 103.434 21.2237 106.961 21.2237ZM104.418 14.1168C104.485 12.8118 105.477 11.7678 106.887 11.7678C108.266 11.7678 109.221 12.7521 109.228 14.1168H104.418ZM119.965 9.54545H117.809V6.80114H114.633V9.54545H113.066V11.9318H114.633V17.8977C114.618 20.1424 116.146 21.2536 118.451 21.1566C119.271 21.1268 119.853 20.9627 120.173 20.8583L119.674 18.4943C119.517 18.5241 119.182 18.5987 118.883 18.5987C118.249 18.5987 117.809 18.3601 117.809 17.4801V11.9318H119.965V9.54545Z" fill="#4C2E56"/>
</svg>
