<svg width="741" height="216" viewBox="0 0 741 216" fill="none" xmlns="http://www.w3.org/2000/svg">
<path d="M74.9828 43.6803H3.44141L42.7743 2.0625L74.9828 43.6803Z" fill="black"/>
<path d="M74.9828 43.6803H3.44141L42.7743 2.0625L74.9828 43.6803Z" fill="#27043C"/>
<path d="M42.2855 52.625H0L75.6688 216.001L42.2855 52.625Z" fill="black"/>
<path d="M42.2855 52.625H0L75.6688 216.001L42.2855 52.625Z" fill="#27043C"/>
<path d="M116.944 52.625H51.25L84.2464 212.561L116.944 52.625Z" fill="black"/>
<path d="M116.944 52.625H51.25L84.2464 212.561L116.944 52.625Z" fill="#27043C"/>
<path d="M125.907 52.625H168.192L92.5234 216.001L125.907 52.625Z" fill="black"/>
<path d="M125.907 52.625H168.192L92.5234 216.001L125.907 52.625Z" fill="#27043C"/>
<path d="M52.2798 -0.000642966L115.566 -0.000648499L84.2944 41.6172L52.2798 -0.000642966Z" fill="black"/>
<path d="M52.2798 -0.000642966L115.566 -0.000648499L84.2944 41.6172L52.2798 -0.000642966Z" fill="#27043C"/>
<path d="M164.752 43.6803H93.2109L125.419 2.0625L164.752 43.6803Z" fill="black"/>
<path d="M164.752 43.6803H93.2109L125.419 2.0625L164.752 43.6803Z" fill="#27043C"/>
<path d="M236.8 84C236.48 84 236.18 83.88 235.9 83.64C235.66 83.36 235.54 83.06 235.54 82.74C235.54 82.5 235.56 82.32 235.6 82.2L249.7 43.68C249.82 43.2 250.08 42.8 250.48 42.48C250.88 42.16 251.4 42 252.04 42H260.92C261.56 42 262.08 42.16 262.48 42.48C262.88 42.8 263.14 43.2 263.26 43.68L277.3 82.2L277.42 82.74C277.42 83.06 277.28 83.36 277 83.64C276.76 83.88 276.46 84 276.1 84H268.72C267.76 84 267.12 83.58 266.8 82.74L264.46 76.62H248.44L246.16 82.74C245.84 83.58 245.18 84 244.18 84H236.8ZM262.06 67.98L256.48 52.14L250.9 67.98H262.06ZM305.868 84C304.588 84 303.768 83.4 303.408 82.2L291.168 43.8L291.048 43.26C291.048 42.94 291.168 42.66 291.408 42.42C291.688 42.14 292.008 42 292.368 42H299.808C300.368 42 300.828 42.16 301.188 42.48C301.588 42.8 301.848 43.16 301.968 43.56L310.488 71.28L318.948 43.56C319.068 43.16 319.308 42.8 319.668 42.48C320.068 42.16 320.548 42 321.108 42H328.608C328.928 42 329.208 42.14 329.448 42.42C329.728 42.66 329.868 42.94 329.868 43.26L329.748 43.8L317.508 82.2C317.148 83.4 316.328 84 315.048 84H305.868ZM344.788 84C344.468 84 344.168 83.88 343.888 83.64C343.648 83.36 343.528 83.06 343.528 82.74C343.528 82.5 343.548 82.32 343.588 82.2L357.688 43.68C357.808 43.2 358.068 42.8 358.468 42.48C358.868 42.16 359.388 42 360.028 42H368.908C369.548 42 370.068 42.16 370.468 42.48C370.868 42.8 371.128 43.2 371.248 43.68L385.288 82.2L385.408 82.74C385.408 83.06 385.268 83.36 384.988 83.64C384.748 83.88 384.448 84 384.088 84H376.708C375.748 84 375.108 83.58 374.788 82.74L372.448 76.62H356.428L354.148 82.74C353.828 83.58 353.168 84 352.168 84H344.788ZM370.048 67.98L364.468 52.14L358.888 67.98H370.048ZM406.638 84C406.238 84 405.878 83.86 405.558 83.58C405.278 83.26 405.138 82.9 405.138 82.5V43.5C405.138 43.06 405.278 42.7 405.558 42.42C405.878 42.14 406.238 42 406.638 42H414.558C414.998 42 415.358 42.14 415.638 42.42C415.918 42.7 416.058 43.06 416.058 43.5V74.94H434.238C434.678 74.94 435.038 75.1 435.318 75.42C435.598 75.7 435.738 76.06 435.738 76.5V82.5C435.738 82.9 435.598 83.26 435.318 83.58C435.038 83.86 434.678 84 434.238 84H406.638ZM453.538 84C453.218 84 452.918 83.88 452.638 83.64C452.398 83.36 452.278 83.06 452.278 82.74C452.278 82.5 452.298 82.32 452.338 82.2L466.438 43.68C466.558 43.2 466.818 42.8 467.218 42.48C467.618 42.16 468.138 42 468.778 42H477.658C478.298 42 478.818 42.16 479.218 42.48C479.618 42.8 479.878 43.2 479.998 43.68L494.038 82.2L494.158 82.74C494.158 83.06 494.018 83.36 493.738 83.64C493.498 83.88 493.198 84 492.838 84H485.458C484.498 84 483.858 83.58 483.538 82.74L481.198 76.62H465.178L462.898 82.74C462.578 83.58 461.918 84 460.918 84H453.538ZM478.798 67.98L473.218 52.14L467.638 67.98H478.798ZM515.388 84C514.988 84 514.628 83.86 514.308 83.58C514.028 83.26 513.888 82.9 513.888 82.5V43.5C513.888 43.06 514.028 42.7 514.308 42.42C514.628 42.14 514.988 42 515.388 42H521.748C522.748 42 523.428 42.38 523.788 43.14L538.428 66.18V43.5C538.428 43.06 538.568 42.7 538.848 42.42C539.168 42.14 539.528 42 539.928 42H547.128C547.568 42 547.928 42.14 548.208 42.42C548.488 42.7 548.628 43.06 548.628 43.5V82.44C548.628 82.88 548.488 83.26 548.208 83.58C547.928 83.86 547.568 84 547.128 84H540.708C539.828 84 539.168 83.62 538.728 82.86L524.088 60.66V82.5C524.088 82.9 523.948 83.26 523.668 83.58C523.388 83.86 523.028 84 522.588 84H515.388ZM589.233 84.6C583.513 84.6 579.033 83.22 575.793 80.46C572.593 77.66 570.893 73.62 570.693 68.34C570.653 67.26 570.633 65.5 570.633 63.06C570.633 60.58 570.653 58.78 570.693 57.66C570.893 52.46 572.633 48.46 575.913 45.66C579.193 42.82 583.633 41.4 589.233 41.4C592.753 41.4 595.913 42 598.713 43.2C601.513 44.36 603.713 46.04 605.312 48.24C606.953 50.4 607.793 52.94 607.833 55.86V55.98C607.833 56.3 607.693 56.58 607.413 56.82C607.173 57.02 606.893 57.12 606.573 57.12H598.473C597.953 57.12 597.553 57.02 597.273 56.82C596.993 56.58 596.753 56.16 596.553 55.56C595.993 53.52 595.113 52.1 593.913 51.3C592.713 50.46 591.133 50.04 589.173 50.04C584.453 50.04 582.013 52.68 581.853 57.96C581.813 59.04 581.793 60.7 581.793 62.94C581.793 65.18 581.813 66.88 581.853 68.04C582.013 73.32 584.453 75.96 589.173 75.96C591.133 75.96 592.733 75.54 593.973 74.7C595.213 73.82 596.073 72.4 596.553 70.44C596.713 69.84 596.933 69.44 597.213 69.24C597.493 69 597.913 68.88 598.473 68.88H606.573C606.933 68.88 607.233 69 607.473 69.24C607.753 69.48 607.873 69.78 607.833 70.14C607.793 73.06 606.953 75.62 605.312 77.82C603.713 79.98 601.513 81.66 598.713 82.86C595.913 84.02 592.753 84.6 589.233 84.6ZM630.641 84C630.201 84 629.841 83.86 629.561 83.58C629.281 83.3 629.141 82.94 629.141 82.5V43.5C629.141 43.06 629.281 42.7 629.561 42.42C629.881 42.14 630.241 42 630.641 42H638.381C638.821 42 639.181 42.14 639.461 42.42C639.781 42.7 639.941 43.06 639.941 43.5V57.96H654.701V43.5C654.701 43.06 654.841 42.7 655.121 42.42C655.401 42.14 655.761 42 656.201 42H663.941C664.381 42 664.741 42.14 665.021 42.42C665.301 42.7 665.441 43.06 665.441 43.5V82.5C665.441 82.94 665.301 83.3 665.021 83.58C664.741 83.86 664.381 84 663.941 84H656.201C655.761 84 655.401 83.86 655.121 83.58C654.841 83.3 654.701 82.94 654.701 82.5V67.56H639.941V82.5C639.941 82.94 639.781 83.3 639.461 83.58C639.181 83.86 638.821 84 638.381 84H630.641ZM690.348 84C689.948 84 689.588 83.86 689.268 83.58C688.988 83.26 688.848 82.9 688.848 82.5V43.5C688.848 43.06 688.988 42.7 689.268 42.42C689.588 42.14 689.948 42 690.348 42H718.368C718.808 42 719.168 42.14 719.448 42.42C719.728 42.7 719.868 43.06 719.868 43.5V49.14C719.868 49.54 719.728 49.9 719.448 50.22C719.168 50.5 718.808 50.64 718.368 50.64H699.228V58.74H717.048C717.488 58.74 717.848 58.9 718.128 59.22C718.408 59.5 718.548 59.86 718.548 60.3V65.52C718.548 65.92 718.408 66.28 718.128 66.6C717.848 66.88 717.488 67.02 717.048 67.02H699.228V75.36H718.848C719.288 75.36 719.648 75.5 719.928 75.78C720.208 76.06 720.348 76.42 720.348 76.86V82.5C720.348 82.9 720.208 83.26 719.928 83.58C719.648 83.86 719.288 84 718.848 84H690.348ZM245.92 168C245.24 168 244.7 167.82 244.3 167.46C243.9 167.06 243.66 166.58 243.58 166.02L237.04 127.68C237 127.56 236.98 127.42 236.98 127.26C236.98 126.94 237.1 126.66 237.34 126.42C237.62 126.14 237.92 126 238.24 126H245.68C246.8 126 247.42 126.44 247.54 127.32L251.44 150.72L255.76 136.92C256.2 135.84 256.86 135.3 257.74 135.3H262.06C263.06 135.3 263.72 135.84 264.04 136.92L268.36 150.72L272.26 127.32C272.38 126.44 273 126 274.12 126H281.56C281.92 126 282.22 126.14 282.46 126.42C282.74 126.66 282.88 126.94 282.88 127.26L282.82 127.68L276.28 166.02C276.2 166.58 275.94 167.06 275.5 167.46C275.1 167.82 274.58 168 273.94 168H268.24C267.6 168 267.1 167.84 266.74 167.52C266.38 167.2 266.12 166.84 265.96 166.44L259.9 149.28L253.84 166.44C253.48 167.48 252.74 168 251.62 168H245.92ZM299.905 168C299.585 168 299.285 167.88 299.005 167.64C298.765 167.36 298.645 167.06 298.645 166.74C298.645 166.5 298.665 166.32 298.705 166.2L312.805 127.68C312.925 127.2 313.185 126.8 313.585 126.48C313.985 126.16 314.505 126 315.145 126H324.025C324.665 126 325.185 126.16 325.585 126.48C325.985 126.8 326.245 127.2 326.365 127.68L340.405 166.2L340.525 166.74C340.525 167.06 340.385 167.36 340.105 167.64C339.865 167.88 339.565 168 339.205 168H331.825C330.865 168 330.225 167.58 329.905 166.74L327.565 160.62H311.545L309.265 166.74C308.945 167.58 308.285 168 307.285 168H299.905ZM325.165 151.98L319.585 136.14L314.005 151.98H325.165ZM361.755 168C361.355 168 360.995 167.86 360.675 167.58C360.395 167.26 360.255 166.9 360.255 166.5V127.5C360.255 127.06 360.395 126.7 360.675 126.42C360.995 126.14 361.355 126 361.755 126H369.675C370.115 126 370.475 126.14 370.755 126.42C371.035 126.7 371.175 127.06 371.175 127.5V158.94H389.355C389.795 158.94 390.155 159.1 390.435 159.42C390.715 159.7 390.855 160.06 390.855 160.5V166.5C390.855 166.9 390.715 167.26 390.435 167.58C390.155 167.86 389.795 168 389.355 168H361.755ZM412.555 168C412.155 168 411.795 167.86 411.475 167.58C411.195 167.26 411.055 166.9 411.055 166.5V127.5C411.055 127.06 411.195 126.7 411.475 126.42C411.795 126.14 412.155 126 412.555 126H420.475C420.915 126 421.275 126.14 421.555 126.42C421.835 126.7 421.975 127.06 421.975 127.5V158.94H440.155C440.595 158.94 440.955 159.1 441.235 159.42C441.515 159.7 441.655 160.06 441.655 160.5V166.5C441.655 166.9 441.515 167.26 441.235 167.58C440.955 167.86 440.595 168 440.155 168H412.555ZM463.356 168C462.956 168 462.596 167.86 462.276 167.58C461.996 167.26 461.856 166.9 461.856 166.5V127.5C461.856 127.06 461.996 126.7 462.276 126.42C462.596 126.14 462.956 126 463.356 126H491.376C491.816 126 492.176 126.14 492.456 126.42C492.736 126.7 492.876 127.06 492.876 127.5V133.14C492.876 133.54 492.736 133.9 492.456 134.22C492.176 134.5 491.816 134.64 491.376 134.64H472.236V142.74H490.056C490.496 142.74 490.856 142.9 491.136 143.22C491.416 143.5 491.556 143.86 491.556 144.3V149.52C491.556 149.92 491.416 150.28 491.136 150.6C490.856 150.88 490.496 151.02 490.056 151.02H472.236V159.36H491.856C492.296 159.36 492.656 159.5 492.936 159.78C493.216 160.06 493.356 160.42 493.356 160.86V166.5C493.356 166.9 493.216 167.26 492.936 167.58C492.656 167.86 492.296 168 491.856 168H463.356ZM525.917 168C525.517 168 525.157 167.86 524.837 167.58C524.557 167.26 524.417 166.9 524.417 166.5V135.42H513.737C513.337 135.42 512.977 135.28 512.657 135C512.377 134.68 512.237 134.32 512.237 133.92V127.5C512.237 127.06 512.377 126.7 512.657 126.42C512.977 126.14 513.337 126 513.737 126H546.017C546.457 126 546.817 126.14 547.097 126.42C547.377 126.7 547.517 127.06 547.517 127.5V133.92C547.517 134.36 547.377 134.72 547.097 135C546.817 135.28 546.457 135.42 546.017 135.42H535.337V166.5C535.337 166.9 535.197 167.26 534.917 167.58C534.637 167.86 534.277 168 533.837 168H525.917Z" fill="#27043C"/>
</svg>
