<svg width="731" height="216" viewBox="0 0 731 216" fill="none" xmlns="http://www.w3.org/2000/svg">
<path d="M74.9828 43.6803H3.44141L42.7743 2.0625L74.9828 43.6803Z" fill="black"/>
<path d="M74.9828 43.6803H3.44141L42.7743 2.0625L74.9828 43.6803Z" fill="#27043C"/>
<path d="M42.2855 52.625H0L75.6688 216.001L42.2855 52.625Z" fill="black"/>
<path d="M42.2855 52.625H0L75.6688 216.001L42.2855 52.625Z" fill="#27043C"/>
<path d="M116.944 52.625H51.25L84.2464 212.561L116.944 52.625Z" fill="black"/>
<path d="M116.944 52.625H51.25L84.2464 212.561L116.944 52.625Z" fill="#27043C"/>
<path d="M125.907 52.625H168.192L92.5234 216.001L125.907 52.625Z" fill="black"/>
<path d="M125.907 52.625H168.192L92.5234 216.001L125.907 52.625Z" fill="#27043C"/>
<path d="M52.2798 -0.000642966L115.566 -0.000648499L84.2944 41.6172L52.2798 -0.000642966Z" fill="black"/>
<path d="M52.2798 -0.000642966L115.566 -0.000648499L84.2944 41.6172L52.2798 -0.000642966Z" fill="#27043C"/>
<path d="M164.752 43.6803H93.2109L125.419 2.0625L164.752 43.6803Z" fill="black"/>
<path d="M164.752 43.6803H93.2109L125.419 2.0625L164.752 43.6803Z" fill="#27043C"/>
<path d="M254.751 132C253.845 132 253.125 131.76 252.591 131.28C252.058 130.747 251.738 130.107 251.631 129.36L242.911 78.24C242.858 78.08 242.831 77.8933 242.831 77.68C242.831 77.2533 242.991 76.88 243.311 76.56C243.685 76.1867 244.085 76 244.511 76H254.431C255.925 76 256.751 76.5867 256.911 77.76L262.111 108.96L267.871 90.56C268.458 89.12 269.338 88.4 270.511 88.4H276.271C277.605 88.4 278.485 89.12 278.911 90.56L284.671 108.96L289.871 77.76C290.031 76.5867 290.858 76 292.351 76H302.271C302.751 76 303.151 76.1867 303.471 76.56C303.845 76.88 304.031 77.2533 304.031 77.68L303.951 78.24L295.231 129.36C295.125 130.107 294.778 130.747 294.191 131.28C293.658 131.76 292.965 132 292.111 132H284.511C283.658 132 282.991 131.787 282.511 131.36C282.031 130.933 281.685 130.453 281.471 129.92L273.391 107.04L265.311 129.92C264.831 131.307 263.845 132 262.351 132H254.751ZM330.732 132C330.305 132 329.905 131.84 329.532 131.52C329.212 131.147 329.052 130.747 329.052 130.32C329.052 130 329.079 129.76 329.132 129.6L347.932 78.24C348.092 77.6 348.439 77.0667 348.972 76.64C349.505 76.2133 350.199 76 351.052 76H362.892C363.745 76 364.439 76.2133 364.972 76.64C365.505 77.0667 365.852 77.6 366.012 78.24L384.732 129.6L384.892 130.32C384.892 130.747 384.705 131.147 384.332 131.52C384.012 131.84 383.612 132 383.132 132H373.292C372.012 132 371.159 131.44 370.732 130.32L367.612 122.16H346.252L343.212 130.32C342.785 131.44 341.905 132 340.572 132H330.732ZM364.412 110.64L356.972 89.52L349.532 110.64H364.412ZM417.198 132C416.664 132 416.184 131.813 415.758 131.44C415.384 131.013 415.198 130.533 415.198 130V78C415.198 77.4133 415.384 76.9333 415.758 76.56C416.184 76.1867 416.664 76 417.198 76H427.758C428.344 76 428.824 76.1867 429.198 76.56C429.571 76.9333 429.758 77.4133 429.758 78V119.92H453.998C454.584 119.92 455.064 120.133 455.438 120.56C455.811 120.933 455.998 121.413 455.998 122V130C455.998 130.533 455.811 131.013 455.438 131.44C455.064 131.813 454.584 132 453.998 132H417.198ZM488.932 132C488.399 132 487.919 131.813 487.492 131.44C487.119 131.013 486.932 130.533 486.932 130V78C486.932 77.4133 487.119 76.9333 487.492 76.56C487.919 76.1867 488.399 76 488.932 76H499.492C500.079 76 500.559 76.1867 500.932 76.56C501.305 76.9333 501.492 77.4133 501.492 78V119.92H525.732C526.319 119.92 526.799 120.133 527.172 120.56C527.545 120.933 527.732 121.413 527.732 122V130C527.732 130.533 527.545 131.013 527.172 131.44C526.799 131.813 526.319 132 525.732 132H488.932ZM560.666 132C560.133 132 559.653 131.813 559.226 131.44C558.853 131.013 558.666 130.533 558.666 130V78C558.666 77.4133 558.853 76.9333 559.226 76.56C559.653 76.1867 560.133 76 560.666 76H598.026C598.613 76 599.093 76.1867 599.466 76.56C599.84 76.9333 600.026 77.4133 600.026 78V85.52C600.026 86.0533 599.84 86.5333 599.466 86.96C599.093 87.3333 598.613 87.52 598.026 87.52H572.506V98.32H596.266C596.853 98.32 597.333 98.5333 597.706 98.96C598.08 99.3333 598.266 99.8133 598.266 100.4V107.36C598.266 107.893 598.08 108.373 597.706 108.8C597.333 109.173 596.853 109.36 596.266 109.36H572.506V120.48H598.666C599.253 120.48 599.733 120.667 600.106 121.04C600.48 121.413 600.666 121.893 600.666 122.48V130C600.666 130.533 600.48 131.013 600.106 131.44C599.733 131.813 599.253 132 598.666 132H560.666ZM648.08 132C647.547 132 647.067 131.813 646.64 131.44C646.267 131.013 646.08 130.533 646.08 130V88.56H631.84C631.307 88.56 630.827 88.3733 630.4 88C630.027 87.5733 629.84 87.0933 629.84 86.56V78C629.84 77.4133 630.027 76.9333 630.4 76.56C630.827 76.1867 631.307 76 631.84 76H674.88C675.467 76 675.947 76.1867 676.32 76.56C676.693 76.9333 676.88 77.4133 676.88 78V86.56C676.88 87.1467 676.693 87.6267 676.32 88C675.947 88.3733 675.467 88.56 674.88 88.56H660.64V130C660.64 130.533 660.453 131.013 660.08 131.44C659.707 131.813 659.227 132 658.64 132H648.08Z" fill="#27043C"/>
</svg>
